  0
SECTION
  2
HEADER
  9
$ACADVER
  1
AC1015
  9
$ACADMAINTVER
 70
     6
  9
$DWGCODEPAGE
  3
ANSI_1252
  9
$INSBASE
 10
0.0
 20
0.0
 30
0.0
  9
$EXTMIN
 10
0.0
 20
0.0
 30
0.0
  9
$EXTMAX
 10
1189.0
 20
841.0
 30
0.0
  9
$LIMMIN
 10
0.0
 20
0.0
  9
$LIMMAX
 10
1189.0
 20
841.0
  9
$ORTHOMODE
 70
     0
  9
$REGENMODE
 70
     1
  9
$FILLMODE
 70
     1
  9
$QTEXTMODE
 70
     0
  9
$MIRRTEXT
 70
     1
  9
$LTSCALE
 40
1.0
  9
$ATTMODE
 70
     1
  9
$TEXTSIZE
 40
3.5
  9
$TRACEWID
 40
1.0
  9
$TEXTSTYLE
  7
Standard
  9
$CLAYER
  8
0
  9
$CELTYPE
  6
ByLayer
  9
$CECOLOR
 62
   256
  9
$CELTSCALE
 40
1.0
  9
$DISPSILH
 70
     0
  9
$DIMSCALE
 40
1.0
  9
$DIMASZ
 40
3.302
  9
$DIMEXO
 40
1.0
  9
$DIMDLI
 40
3.75
  9
$DIMRND
 40
0.0
  9
$DIMDLE
 40
0.0
  9
$DIMEXE
 40
1.0
  9
$DIMTP
 40
0.0
  9
$DIMTM
 40
0.0
  9
$DIMTXT
 40
3.5
  9
$DIMCEN
 40
2.5
  9
$DIMTSZ
 40
0.0
  9
$DIMTOL
 70
     0
  9
$DIMLIM
 70
     0
  9
$DIMTIH
 70
     1
  9
$DIMTOH
 70
     1
  9
$DIMSE1
 70
     0
  9
$DIMSE2
 70
     0
  9
$DIMTAD
 70
     1
  9
$DIMZIN
 70
     1
  9
$DIMBLK
  1

  9
$DIMASO
 70
     1
  9
$DIMSHO
 70
     1
  9
$DIMPOST
  1

  9
$DIMAPOST
  1

  9
$DIMALT
 70
     0
  9
$DIMALTD
 70
     3
  9
$DIMALTF
 40
0.0393700787
  9
$DIMLFAC
 40
1.0
  9
$DIMTOFL
 70
     1
  9
$DIMTVP
 40
0.0
  9
$DIMTIX
 70
     0
  9
$DIMSOXD
 70
     0
  9
$DIMSAH
 70
     0
  9
$DIMBLK1
  1

  9
$DIMBLK2
  1

  9
$DIMSTYLE
  2
ISO-25
  9
$DIMCLRD
 70
     0
  9
$DIMCLRE
 70
     0
  9
$DIMCLRT
 70
     0
  9
$DIMTFAC
 40
1.0
  9
$DIMGAP
 40
1.524
  9
$DIMJUST
 70
     0
  9
$DIMSD1
 70
     0
  9
$DIMSD2
 70
     0
  9
$DIMTOLJ
 70
     0
  9
$DIMTZIN
 70
     1
  9
$DIMALTZ
 70
     0
  9
$DIMALTTZ
 70
     0
  9
$DIMUPT
 70
     0
  9
$DIMDEC
 70
     2
  9
$DIMTDEC
 70
     2
  9
$DIMALTU
 70
     2
  9
$DIMALTTD
 70
     3
  9
$DIMTXSTY
  7
Standard
  9
$DIMAUNIT
 70
     0
  9
$DIMADEC
 70
     2
  9
$DIMALTRND
 40
0.0
  9
$DIMAZIN
 70
     0
  9
$DIMDSEP
 70
    44
  9
$DIMATFIT
 70
     3
  9
$DIMFRAC
 70
     0
  9
$DIMLDRBLK
  1

  9
$DIMLUNIT
 70
     2
  9
$DIMLWD
 70
    -2
  9
$DIMLWE
 70
    -2
  9
$DIMTMOVE
 70
     0
  9
$LUNITS
 70
     2
  9
$LUPREC
 70
     2
  9
$SKETCHINC
 40
1.0
  9
$FILLETRAD
 40
0.0
  9
$AUNITS
 70
     0
  9
$AUPREC
 70
     2
  9
$MENU
  1
.
  9
$ELEVATION
 40
0.0
  9
$PELEVATION
 40
0.0
  9
$THICKNESS
 40
0.0
  9
$LIMCHECK
 70
     0
  9
$CHAMFERA
 40
0.0
  9
$CHAMFERB
 40
0.0
  9
$CHAMFERC
 40
0.0
  9
$CHAMFERD
 40
0.0
  9
$SKPOLY
 70
     0
  9
$TDCREATE
 40
2461172.554525105
  9
$TDUCREATE
 40
2461172.262858438
  9
$TDUPDATE
 40
2461172.554525614
  9
$TDUUPDATE
 40
2461172.262858947
  9
$TDINDWG
 40
0.0000000116
  9
$TDUSRTIMER
 40
0.0000000116
  9
$USRTIMER
 70
     1
  9
$ANGBASE
 50
0.0
  9
$ANGDIR
 70
     0
  9
$PDMODE
 70
     0
  9
$PDSIZE
 40
-1.0
  9
$PLINEWID
 40
0.0
  9
$SPLFRAME
 70
     0
  9
$SPLINETYPE
 70
     6
  9
$SPLINESEGS
 70
     8
  9
$HANDSEED
  5
107
  9
$SURFTAB1
 70
     6
  9
$SURFTAB2
 70
     6
  9
$SURFTYPE
 70
     6
  9
$SURFU
 70
     6
  9
$SURFV
 70
     6
  9
$UCSBASE
  2

  9
$UCSNAME
  2

  9
$UCSORG
 10
0.0
 20
0.0
 30
0.0
  9
$UCSXDIR
 10
1.0
 20
0.0
 30
0.0
  9
$UCSYDIR
 10
0.0
 20
1.0
 30
0.0
  9
$UCSORTHOREF
  2

  9
$UCSORTHOVIEW
 70
     0
  9
$UCSORGTOP
 10
0.0
 20
0.0
 30
0.0
  9
$UCSORGBOTTOM
 10
0.0
 20
0.0
 30
0.0
  9
$UCSORGLEFT
 10
0.0
 20
0.0
 30
0.0
  9
$UCSORGRIGHT
 10
0.0
 20
0.0
 30
0.0
  9
$UCSORGFRONT
 10
0.0
 20
0.0
 30
0.0
  9
$UCSORGBACK
 10
0.0
 20
0.0
 30
0.0
  9
$PUCSBASE
  2

  9
$PUCSNAME
  2

  9
$PUCSORG
 10
0.0
 20
0.0
 30
0.0
  9
$PUCSXDIR
 10
1.0
 20
0.0
 30
0.0
  9
$PUCSYDIR
 10
0.0
 20
1.0
 30
0.0
  9
$PUCSORTHOREF
  2

  9
$PUCSORTHOVIEW
 70
     0
  9
$PUCSORGTOP
 10
0.0
 20
0.0
 30
0.0
  9
$PUCSORGBOTTOM
 10
0.0
 20
0.0
 30
0.0
  9
$PUCSORGLEFT
 10
0.0
 20
0.0
 30
0.0
  9
$PUCSORGRIGHT
 10
0.0
 20
0.0
 30
0.0
  9
$PUCSORGFRONT
 10
0.0
 20
0.0
 30
0.0
  9
$PUCSORGBACK
 10
0.0
 20
0.0
 30
0.0
  9
$USERI1
 70
     0
  9
$USERI2
 70
     0
  9
$USERI3
 70
     0
  9
$USERI4
 70
     0
  9
$USERI5
 70
     0
  9
$USERR1
 40
0.0
  9
$USERR2
 40
0.0
  9
$USERR3
 40
0.0
  9
$USERR4
 40
0.0
  9
$USERR5
 40
0.0
  9
$WORLDVIEW
 70
     1
  9
$SHADEDGE
 70
     3
  9
$SHADEDIF
 70
    70
  9
$TILEMODE
 70
     1
  9
$MAXACTVP
 70
    64
  9
$PINSBASE
 10
0.0
 20
0.0
 30
0.0
  9
$PLIMCHECK
 70
     0
  9
$PEXTMIN
 10
1.0000000000E+20
 20
1.0000000000E+20
 30
1.0000000000E+20
  9
$PEXTMAX
 10
-1.0000000000E+20
 20
-1.0000000000E+20
 30
-1.0000000000E+20
  9
$PLIMMIN
 10
0.0
 20
0.0
  9
$PLIMMAX
 10
420.0
 20
297.0
  9
$UNITMODE
 70
     0
  9
$VISRETAIN
 70
     1
  9
$PLINEGEN
 70
     0
  9
$PSLTSCALE
 70
     1
  9
$TREEDEPTH
 70
  3020
  9
$CMLSTYLE
  2
Standard
  9
$CMLJUST
 70
     0
  9
$CMLSCALE
 40
20.0
  9
$PROXYGRAPHICS
 70
     1
  9
$MEASUREMENT
 70
     1
  9
$CELWEIGHT
370
    -1
  9
$ENDCAPS
280
     0
  9
$JOINSTYLE
280
     0
  9
$LWDISPLAY
290
     1
  9
$INSUNITS
 70
     4
  9
$HYPERLINKBASE
  1

  9
$STYLESHEET
  1

  9
$XEDIT
290
     1
  9
$CEPSNTYPE
380
     0
  9
$PSTYLEMODE
290
     1
  9
$FINGERPRINTGUID
  2
{68e714e6-9959-4050-adbc-a22ba79cb882}
  9
$VERSIONGUID
  2
{FAEB1C32-E019-11D5-929B-00C0DF256EC4}
  9
$EXTNAMES
290
     1
  9
$PSVPSCALE
 40
0.0
  9
$OLESTARTUP
290
     0
  0
ENDSEC
  0
SECTION
  2
CLASSES
  0
CLASS
  1
ACDBDICTIONARYWDFLT
  2
AcDbDictionaryWithDefault
  3
ObjectDBX Classes
 90
        0
280
     0
281
     0
  0
CLASS
  1
VISUALSTYLE
  2
AcDbVisualStyle
  3
ObjectDBX Classes
 90
     4095
280
     0
281
     0
  0
CLASS
  1
MATERIAL
  2
AcDbMaterial
  3
ObjectDBX Classes
 90
     1153
280
     0
281
     0
  0
CLASS
  1
SCALE
  2
AcDbScale
  3
ObjectDBX Classes
 90
     1153
280
     0
281
     0
  0
CLASS
  1
TABLESTYLE
  2
AcDbTableStyle
  3
ObjectDBX Classes
 90
     4095
280
     0
281
     0
  0
CLASS
  1
MLEADERSTYLE
  2
AcDbMLeaderStyle
  3
ACDB_MLEADERSTYLE_CLASS
 90
     4095
280
     0
281
     0
  0
CLASS
  1
SUN
  2
AcDbSun
  3
SCENEOE
 90
     1153
280
     0
281
     0
  0
CLASS
  1
ACDBPLACEHOLDER
  2
AcDbPlaceHolder
  3
ObjectDBX Classes
 90
        0
280
     0
281
     0
  0
CLASS
  1
LAYOUT
  2
AcDbLayout
  3
ObjectDBX Classes
 90
        0
280
     0
281
     0
  0
ENDSEC
  0
SECTION
  2
TABLES
  0
TABLE
  2
VPORT
  5
8
330
0
100
AcDbSymbolTable
 70
     1
  0
VPORT
  5
29
330
8
100
AcDbSymbolTableRecord
100
AcDbViewportTableRecord
  2
*Active
 70
     0
 10
0.0
 20
0.0
 11
1.0
 21
1.0
 12
594.5
 22
420.5
 13
0.0
 23
0.0
 14
10.0
 24
10.0
 15
10.0
 25
10.0
 16
0.0
 26
0.0
 36
1.0
 17
0.0
 27
0.0
 37
0.0
 40
841.0
 41
1.4137931034
 42
50.0
 43
0.0
 44
0.0
 50
0.0
 51
0.0
 71
     0
 72
  2000
 73
     1
 74
     3
 75
     0
 76
     0
 77
     0
 78
     0
281
     0
 65
     1
110
0.0
120
0.0
130
0.0
111
1.0
121
0.0
131
0.0
112
0.0
122
1.0
132
0.0
 79
     0
146
0.0
  0
ENDTAB
  0
TABLE
  2
LTYPE
  5
5
330
0
100
AcDbSymbolTable
 70
     6
  0
LTYPE
  5
14
330
5
100
AcDbSymbolTableRecord
100
AcDbLinetypeTableRecord
  2
ByBlock
 70
     0
  3

 72
    65
 73
     0
 40
0.0
  0
LTYPE
  5
15
330
5
100
AcDbSymbolTableRecord
100
AcDbLinetypeTableRecord
  2
ByLayer
 70
     0
  3

 72
    65
 73
     0
 40
0.0
  0
LTYPE
  5
16
330
5
100
AcDbSymbolTableRecord
100
AcDbLinetypeTableRecord
  2
Continuous
 70
     0
  3
Solid line
 72
    65
 73
     0
 40
0.0
  0
LTYPE
  5
5E
330
5
100
AcDbSymbolTableRecord
100
AcDbLinetypeTableRecord
  2
HIDDEN
 70
     0
  3
Hidden __ __ __ __ __ __ __ __ __ __ __ __ __ __
 72
    65
 73
     2
 40
1.905
 49
1.27
 74
     0
 49
-0.635
 74
     0
  0
LTYPE
  5
5F
330
5
100
AcDbSymbolTableRecord
100
AcDbLinetypeTableRecord
  2
PHANTOM
 70
     0
  3
Phantom ______  __  __  ______  __  __  ______
 72
    65
 73
     6
 40
12.7
 49
6.35
 74
     0
 49
-1.27
 74
     0
 49
1.27
 74
     0
 49
-1.27
 74
     0
 49
1.27
 74
     0
 49
-1.27
 74
     0
  0
LTYPE
  5
60
330
5
100
AcDbSymbolTableRecord
100
AcDbLinetypeTableRecord
  2
CENTER
 70
     0
  3
Center ____ _ ____ _ ____ _ ____ _ ____ _ ____
 72
    65
 73
     4
 40
10.16
 49
6.35
 74
     0
 49
-1.27
 74
     0
 49
1.27
 74
     0
 49
-1.27
 74
     0
  0
LTYPE
  5
61
330
5
100
AcDbSymbolTableRecord
100
AcDbLinetypeTableRecord
  2
CENTERX2
 70
     0
  3
Center (2x) ________  __  ________  __  _____
 72
    65
 73
     4
 40
20.32
 49
12.7
 74
     0
 49
-2.54
 74
     0
 49
2.54
 74
     0
 49
-2.54
 74
     0
  0
LTYPE
  5
62
330
5
100
AcDbSymbolTableRecord
100
AcDbLinetypeTableRecord
  2
DOT2
 70
     0
  3
Dot (.5x) ........................................
 72
    65
 73
     2
 40
0.635
 49
0.0
 74
     0
 49
-0.635
 74
     0
  0
ENDTAB
  0
TABLE
  2
LAYER
  5
2
330
0
100
AcDbSymbolTable
 70
     2
  0
LAYER
  5
10
330
2
100
AcDbSymbolTableRecord
100
AcDbLayerTableRecord
  2
0
 70
     0
 62
     7
  6
Continuous
370
    -3
390
F
  0
LAYER
  5
63
330
2
100
AcDbSymbolTableRecord
100
AcDbLayerTableRecord
  2
FORMAT
 70
     0
 62
     7
  6
Continuous
370
    -3
390
F
  0
ENDTAB
  0
TABLE
  2
STYLE
  5
3
330
0
100
AcDbSymbolTable
 70
     1
  0
STYLE
  5
11
330
3
100
AcDbSymbolTableRecord
100
AcDbTextStyleTableRecord
  2
Standard
 70
     0
 40
0.0
 41
1.0
 50
0.0
 71
     0
 42
3.5
  3
txt
  4

  0
ENDTAB
  0
TABLE
  2
VIEW
  5
6
330
0
100
AcDbSymbolTable
 70
     0
  0
ENDTAB
  0
TABLE
  2
UCS
  5
7
330
0
100
AcDbSymbolTable
 70
     0
  0
ENDTAB
  0
TABLE
  2
APPID
  5
9
330
0
100
AcDbSymbolTable
 70
     1
  0
APPID
  5
12
330
9
100
AcDbSymbolTableRecord
100
AcDbRegAppTableRecord
  2
ACAD
 70
     0
  0
ENDTAB
  0
TABLE
  2
DIMSTYLE
  5
A
330
0
100
AcDbSymbolTable
 70
     1
100
AcDbDimStyleTable
  0
DIMSTYLE
105
27
330
A
100
AcDbSymbolTableRecord
100
AcDbDimStyleTableRecord
  2
ISO-25
 70
     0
 41
2.5
 42
0.625
 43
3.75
 44
1.25
 73
     0
 74
     0
 77
     1
 78
     8
140
2.5
141
2.5
143
0.0393700787
147
0.625
171
     3
172
     1
178
     0
271
     2
272
     2
274
     3
278
    44
283
     0
284
     8
340
11
  0
ENDTAB
  0
TABLE
  2
BLOCK_RECORD
  5
1
330
0
100
AcDbSymbolTable
 70
     1
  0
BLOCK_RECORD
  5
1F
330
1
100
AcDbSymbolTableRecord
100
AcDbBlockTableRecord
  2
*Model_Space
340
22
  0
BLOCK_RECORD
  5
1B
330
1
100
AcDbSymbolTableRecord
100
AcDbBlockTableRecord
  2
*Paper_Space
340
1E
  0
BLOCK_RECORD
  5
23
330
1
100
AcDbSymbolTableRecord
100
AcDbBlockTableRecord
  2
*Paper_Space0
340
26
  0
ENDTAB
  0
ENDSEC
  0
SECTION
  2
BLOCKS
  0
BLOCK
  5
20
330
1F
100
AcDbEntity
  8
0
100
AcDbBlockBegin
  2
*Model_Space
 70
     0
 10
0.0
 20
0.0
 30
0.0
  3
*Model_Space
  1

  0
ENDBLK
  5
21
330
1F
100
AcDbEntity
  8
0
100
AcDbBlockEnd
  0
BLOCK
  5
1C
330
1B
100
AcDbEntity
 67
     1
  8
0
100
AcDbBlockBegin
  2
*Paper_Space
 70
     0
 10
0.0
 20
0.0
 30
0.0
  3
*Paper_Space
  1

  0
ENDBLK
  5
1D
330
1B
100
AcDbEntity
 67
     1
  8
0
100
AcDbBlockEnd
  0
BLOCK
  5
24
330
23
100
AcDbEntity
  8
0
100
AcDbBlockBegin
  2
*Paper_Space0
 70
     0
 10
0.0
 20
0.0
 30
0.0
  3
*Paper_Space0
  1

  0
ENDBLK
  5
25
330
23
100
AcDbEntity
  8
0
100
AcDbBlockEnd
  0
ENDSEC
  0
SECTION
  2
ENTITIES
  0
LINE
  5
64
330
1F
100
AcDbEntity
  8
0
  6
Continuous
 62
     7
370
    25
100
AcDbLine
 10
560.3708290783
 20
548.9817273796
 30
0.0
 11
567.9053870664
 21
548.9817273796
 31
0.0
  0
LINE
  5
65
330
1F
100
AcDbEntity
  8
0
  6
Continuous
 62
     7
370
    25
100
AcDbLine
 10
567.9053870664
 20
548.9817273796
 30
0.0
 11
568.1054195794
 21
545.5441316013
 31
0.0
  0
LINE
  5
66
330
1F
100
AcDbEntity
  8
0
  6
Continuous
 62
     7
370
    25
100
AcDbLine
 10
568.1054195794
 20
545.5441316013
 30
0.0
 11
567.6312684375
 21
545.5441316013
 31
0.0
  0
SPLINE
  5
67
330
1F
100
AcDbEntity
  8
0
  6
Continuous
 62
     7
370
    25
100
AcDbSpline
210
0.0
220
0.0
230
1.0
 70
     8
 71
     3
 72
    23
 73
    19
 74
     0
 42
0.00000001
 43
0.00000001
 40
0.0
 40
0.0
 40
0.0
 40
0.0
 40
0.0895282389186391
 40
0.1736478509491771
 40
0.2530509269537013
 40
0.3275044846388304
 40
0.3975310864861909
 40
0.4633294606456471
 40
0.5252898916562948
 40
0.5836365104037872
 40
0.6389646213568024
 40
0.6920982939822168
 40
0.743375339175073
 40
0.7935880607423969
 40
0.8437512098863804
 40
0.8944753866854338
 40
0.946201294478678
 40
1.0
 40
1.0
 40
1.0
 40
1.0
 10
567.6312684375495
 20
545.5441316013083
 30
0.0
 10
567.6124532547564
 20
545.6640690033713
 30
0.0
 10
567.5759595618532
 20
545.8966980863089
 30
0.0
 10
567.5073003588134
 20
546.2329890912451
 30
0.0
 10
567.4287036282128
 20
546.5461220265368
 30
0.0
 10
567.3370510806958
 20
546.8356197890008
 30
0.0
 10
567.2390915825282
 20
547.1036588127383
 30
0.0
 10
567.1246757162984
 20
547.3464608243751
 30
0.0
 10
567.003938849
 20
547.568380242929
 30
0.0
 10
566.8692875713217
 20
547.765141008839
 30
0.0
 10
566.7274992042171
 20
547.941945615113
 30
0.0
 10
566.5703684156797
 20
548.0917076894341
 30
0.0
 10
566.4053366947614
 20
548.2217685138626
 30
0.0
 10
566.2273087506373
 20
548.3257792257729
 30
0.0
 10
566.0393055713953
 20
548.4086438373772
 30
0.0
 10
565.8397112619059
 20
548.4649235197357
 30
0.0
 10
565.6304796319947
 20
548.5021266645376
 30
0.0
 10
565.4872585769457
 20
548.5057360803324
 30
0.0
 10
565.4142414189291
 20
548.5075762377267
 30
0.0
  0
SPLINE
  5
68
330
1F
100
AcDbEntity
  8
0
  6
Continuous
 62
     7
370
    25
100
AcDbSpline
210
0.0
220
0.0
230
1.0
 70
     8
 71
     3
 72
    15
 73
    11
 74
     0
 42
0.00000001
 43
0.00000001
 40
0.0
 40
0.0
 40
0.0
 40
0.0
 40
0.1716723071931705
 40
0.3183490641793792
 40
0.4390264374187377
 40
0.5405717763780029
 40
0.6365721542117815
 40
0.7426248446123711
 40
0.8609249475328921
 40
1.0
 40
1.0
 40
1.0
 40
1.0
 10
565.4142414189291
 20
548.5075762377267
 30
0.0
 10
565.359197039264
 20
548.50655583051
 30
0.0
 10
565.2571227615821
 20
548.5046635877378
 30
0.0
 10
565.1177374760368
 20
548.4814371954894
 30
0.0
 10
565.0052253792013
 20
548.4437116569476
 30
0.0
 10
564.9170123122103
 20
548.3890223543638
 30
0.0
 10
564.8575224072123
 20
548.3101646373069
 30
0.0
 10
564.8144691014705
 20
548.2162257949577
 30
0.0
 10
564.7916181426697
 20
548.1011248903555
 30
0.0
 10
564.7882055906985
 20
548.0186969209764
 30
0.0
 10
564.786361586588
 20
547.9741562031713
 30
0.0
  0
LINE
  5
69
330
1F
100
AcDbEntity
  8
0
  6
Continuous
 62
     7
370
    25
100
AcDbLine
 10
564.7863615866
 20
547.9741562032
 30
0.0
 11
564.7863615866
 21
540.6433350338
 31
0.0
  0
SPLINE
  5
6A
330
1F
100
AcDbEntity
  8
0
  6
Continuous
 62
     7
370
    25
100
AcDbSpline
210
0.0
220
0.0
230
1.0
 70
     8
 71
     3
 72
    15
 73
    11
 74
     0
 42
0.00000001
 43
0.00000001
 40
0.0
 40
0.0
 40
0.0
 40
0.0
 40
0.1310307031049288
 40
0.2470932309303761
 40
0.3546041703770063
 40
0.4553946205837331
 40
0.5635118295327329
 40
0.6897361095708079
 40
0.8317009599492329
 40
1.0
 40
1.0
 40
1.0
 40
1.0
 10
564.786361586588
 20
540.6433350338317
 30
0.0
 10
564.7873592631722
 20
540.6085687839553
 30
0.0
 10
564.7892406476476
 20
540.5430077756902
 30
0.0
 10
564.8144750527332
 20
540.4518717078257
 30
0.0
 10
564.8524407687797
 20
540.3740917121277
 30
0.0
 10
564.9095258400569
 20
540.311290419941
 30
0.0
 10
564.985505971148
 20
540.2637919620537
 30
0.0
 10
565.0805452792931
 20
540.2318967924903
 30
0.0
 10
565.1950434235167
 20
540.2142274548997
 30
0.0
 10
565.2771150010312
 20
540.2114421253732
 30
0.0
 10
565.3216337740411
 20
540.2099312557555
 30
0.0
  0
LINE
  5
6B
330
1F
100
AcDbEntity
  8
0
  6
Continuous
 62
     7
370
    25
100
AcDbLine
 10
565.321633774
 20
540.2099312558
 30
0.0
 11
566.2088150121
 21
540.2099312558
 31
0.0
  0
LINE
  5
6C
330
1F
100
AcDbEntity
  8
0
  6
Continuous
 62
     7
370
    25
100
AcDbLine
 10
566.2088150121
 20
540.2099312558
 30
0.0
 11
566.2088150121
 21
539.7357801139
 31
0.0
  0
LINE
  5
6D
330
1F
100
AcDbEntity
  8
0
  6
Continuous
 62
     7
370
    25
100
AcDbLine
 10
566.2088150121
 20
539.7357801139
 30
0.0
 11
562.0599925211
 21
539.7357801139
 31
0.0
  0
LINE
  5
6E
330
1F
100
AcDbEntity
  8
0
  6
Continuous
 62
     7
370
    25
100
AcDbLine
 10
562.0599925211
 20
539.7357801139
 30
0.0
 11
562.0599925211
 21
540.2099312558
 31
0.0
  0
LINE
  5
6F
330
1F
100
AcDbEntity
  8
0
  6
Continuous
 62
     7
370
    25
100
AcDbLine
 10
562.0599925211
 20
540.2099312558
 30
0.0
 11
563.0675636975
 21
540.2099312558
 31
0.0
  0
SPLINE
  5
70
330
1F
100
AcDbEntity
  8
0
  6
Continuous
 62
     7
370
    25
100
AcDbSpline
210
0.0
220
0.0
230
1.0
 70
     8
 71
     3
 72
    15
 73
    11
 74
     0
 42
0.00000001
 43
0.00000001
 40
0.0
 40
0.0
 40
0.0
 40
0.0
 40
0.1478653844288906
 40
0.2811082985898681
 40
0.4026445356258208
 40
0.5200193675068895
 40
0.6351302138096402
 40
0.7502410601123909
 40
0.8694171455460371
 40
1.0
 40
1.0
 40
1.0
 40
1.0
 10
563.0675636974655
 20
540.2099312557555
 30
0.0
 10
563.0991085709866
 20
540.2115907441533
 30
0.0
 10
563.1590788321738
 20
540.2147456134412
 30
0.0
 10
563.2440720113789
 20
540.231844892419
 30
0.0
 10
563.3163656185174
 20
540.2664451216092
 30
0.0
 10
563.3769955568964
 20
540.3129195763954
 30
0.0
 10
563.4226690100178
 20
540.371966550785
 30
0.0
 10
563.4604195528423
 20
540.4371118618271
 30
0.0
 10
563.4774907856538
 20
540.5141233379433
 30
0.0
 10
563.4807446897851
 20
540.5673501753214
 30
0.0
 10
563.482445946564
 20
540.5951790584899
 30
0.0
  0
LINE
  5
71
330
1F
100
AcDbEntity
  8
0
  6
Continuous
 62
     7
370
    25
100
AcDbLine
 10
563.4824459466
 20
540.5951790585
 30
0.0
 11
563.4824459466
 21
548.0297207901
 31
0.0
  0
SPLINE
  5
72
330
1F
100
AcDbEntity
  8
0
  6
Continuous
 62
     7
370
    25
100
AcDbSpline
210
0.0
220
0.0
230
1.0
 70
     8
 71
     3
 72
    15
 73
    11
 74
     0
 42
0.00000001
 43
0.00000001
 40
0.0
 40
0.0
 40
0.0
 40
0.0
 40
0.1260471468120657
 40
0.2387871422687358
 40
0.3447329565585382
 40
0.44839965011467
 40
0.5604768074132571
 40
0.6856866541958285
 40
0.8323084451072023
 40
1.0
 40
1.0
 40
1.0
 40
1.0
 10
563.482445946564
 20
548.0297207901042
 30
0.0
 10
563.4806621703714
 20
548.0668919431929
 30
0.0
 10
563.4772829362496
 20
548.1373099863252
 30
0.0
 10
563.4521489475569
 20
548.2369802762352
 30
0.0
 10
563.4042514313272
 20
548.3202925517111
 30
0.0
 10
563.3386611009214
 20
548.3900673456312
 30
0.0
 10
563.2527299109327
 20
548.444109515013
 30
0.0
 10
563.1457570717397
 20
548.4833388417566
 30
0.0
 10
563.0170939340164
 20
548.5037949738669
 30
0.0
 10
562.9243958252537
 20
548.5062607199484
 30
0.0
 10
562.8749397960983
 20
548.5075762377267
 30
0.0
  0
SPLINE
  5
73
330
1F
100
AcDbEntity
  8
0
  6
Continuous
 62
     7
370
    25
100
AcDbSpline
210
0.0
220
0.0
230
1.0
 70
     8
 71
     3
 72
    15
 73
    11
 74
     0
 42
0.00000001
 43
0.00000001
 40
0.0
 40
0.0
 40
0.0
 40
0.0
 40
0.1239926296018592
 40
0.2445788500330627
 40
0.3636511065144038
 40
0.482741233663185
 40
0.6046569328369955
 40
0.7301508005038391
 40
0.8614497613384955
 40
0.9999999999999999
 40
0.9999999999999999
 40
0.9999999999999999
 40
0.9999999999999999
 10
562.8749397960983
 20
548.5075762377267
 30
0.0
 10
562.8006837233938
 20
548.5051556224361
 30
0.0
 10
562.6542115909103
 20
548.5003808926313
 30
0.0
 10
562.4393797329458
 20
548.4602877895371
 30
0.0
 10
562.2345306556516
 20
548.3946901396419
 30
0.0
 10
562.0374277705747
 20
548.3058480908932
 30
0.0
 10
561.8523582131546
 20
548.1870344831317
 30
0.0
 10
561.6743025868165
 20
548.0460270954618
 30
0.0
 10
561.5095005288543
 20
547.8752935131093
 30
0.0
 10
561.4094143828949
 20
547.7484792040133
 30
0.0
 10
561.3580265728316
 20
547.6833681982228
 30
0.0
  0
SPLINE
  5
74
330
1F
100
AcDbEntity
  8
0
  6
Continuous
 62
     7
370
    25
100
AcDbSpline
210
0.0
220
0.0
230
1.0
 70
     8
 71
     3
 72
    15
 73
    11
 74
     0
 42
0.00000001
 43
0.00000001
 40
0.0
 40
0.0
 40
0.0
 40
0.0
 40
0.0956278506944974
 40
0.19862335359515
 40
0.3100058630164443
 40
0.4296434931307098
 40
0.5580056135429206
 40
0.69547225552223
 40
0.8425170319022741
 40
1.0
 40
1.0
 40
1.0
 40
1.0
 10
561.3580265728316
 20
547.6833681982228
 30
0.0
 10
561.3168524316239
 20
547.623522271686
 30
0.0
 10
561.2313318855836
 20
547.499219586418
 30
0.0
 10
561.1189459026173
 20
547.2919250938417
 30
0.0
 10
561.0158708787785
 20
547.0600364138453
 30
0.0
 10
560.9218082135031
 20
546.8037219657497
 30
0.0
 10
560.8368357274005
 20
546.5235123358437
 30
0.0
 10
560.7620292178874
 20
546.2190244086188
 30
0.0
 10
560.6924142149136
 20
545.8906362392828
 30
0.0
 10
560.6562440659172
 20
545.6622426696506
 30
0.0
 10
560.6375390956024
 20
545.5441316013083
 30
0.0
  0
LINE
  5
75
330
1F
100
AcDbEntity
  8
0
  6
Continuous
 62
     7
370
    25
100
AcDbLine
 10
560.6375390956
 20
545.5441316013
 30
0.0
 11
560.1633879538
 21
545.5441316013
 31
0.0
  0
LINE
  5
76
330
1F
100
AcDbEntity
  8
0
  6
Continuous
 62
     7
370
    25
100
AcDbLine
 10
560.1633879538
 20
545.5441316013
 30
0.0
 11
560.3708290783
 21
548.9817273796
 31
0.0
  0
SPLINE
  5
77
330
1F
100
AcDbEntity
  8
0
  6
Continuous
 62
     7
370
    25
100
AcDbSpline
210
0.0
220
0.0
230
1.0
 70
     8
 71
     3
 72
    23
 73
    19
 74
     0
 42
0.00000001
 43
0.00000001
 40
0.0
 40
0.0
 40
0.0
 40
0.0
 40
0.0647296531823228
 40
0.1271590019974399
 40
0.187854754988561
 40
0.2475670058290602
 40
0.3066791183139815
 40
0.3662019348425596
 40
0.4263744388200084
 40
0.4883147282588396
 40
0.5503981121199883
 40
0.611800798152866
 40
0.6731311846192
 40
0.7348392183577683
 40
0.7979778099430493
 40
0.8628941298202638
 40
0.9300532226553921
 40
1.0
 40
1.0
 40
1.0
 40
1.0
 10
584.9377851142323
 20
542.441775497558
 30
0.0
 10
584.9354104882663
 20
542.3422387405234
 30
0.0
 10
584.9307456236622
 20
542.1467024744642
 30
0.0
 10
584.890552582801
 20
541.8601908106351
 30
0.0
 10
584.8268452077306
 20
541.5859556992797
 30
0.0
 10
584.7325914513378
 20
541.3260857979009
 30
0.0
 10
584.6164600778861
 20
541.0772000209301
 30
0.0
 10
584.4701528017292
 20
540.8438806839187
 30
0.0
 10
584.3009983638615
 20
540.6212510127934
 30
0.0
 10
584.105527974987
 20
540.4156593644075
 30
0.0
 10
583.8894768074773
 20
540.229107531566
 30
0.0
 10
583.65683804821
 20
540.065281268256
 30
0.0
 10
583.4096383045887
 20
539.92550647356
 30
0.0
 10
583.1464848768578
 20
539.8115987720074
 30
0.0
 10
582.8673523142439
 20
539.7253660684494
 30
0.0
 10
582.5736991127686
 20
539.6620510987908
 30
0.0
 10
582.2648490993141
 20
539.6248425445899
 30
0.0
 10
582.0540836085629
 20
539.6198098427293
 30
0.0
 10
581.9465581843476
 20
539.6172423284718
 30
0.0
  0
SPLINE
  5
78
330
1F
100
AcDbEntity
  8
0
  6
Continuous
 62
     7
370
    25
100
AcDbSpline
210
0.0
220
0.0
230
1.0
 70
     8
 71
     3
 72
    15
 73
    11
 74
     0
 42
0.00000001
 43
0.00000001
 40
0.0
 40
0.0
 40
0.0
 40
0.0
 40
0.1293112079092687
 40
0.2547987486325156
 40
0.3788425105581912
 40
0.5005436761401364
 40
0.6229779014280903
 40
0.746007963536537
 40
0.871340876858104
 40
1.0
 40
1.0
 40
1.0
 40
1.0
 10
581.9465581843476
 20
539.6172423284718
 30
0.0
 10
581.8297202009835
 20
539.619966036753
 30
0.0
 10
581.5994990744836
 20
539.6253329146356
 30
0.0
 10
581.2598377731036
 20
539.6716788960658
 30
0.0
 10
580.9320946430798
 20
539.744481542926
 30
0.0
 10
580.6161727626602
 20
539.8499462212584
 30
0.0
 10
580.3117891538268
 20
539.9828490134545
 30
0.0
 10
580.0197466264462
 20
540.1476657613131
 30
0.0
 10
579.738038856549
 20
540.3401196248643
 30
0.0
 10
579.5639636450292
 20
540.4897497779345
 30
0.0
 10
579.4757862187339
 20
540.5655446121257
 30
0.0
  0
LINE
  5
79
330
1F
100
AcDbEntity
  8
0
  6
Continuous
 62
     7
370
    25
100
AcDbLine
 10
579.4757862187
 20
540.5655446121
 30
0.0
 11
578.7738202705
 21
539.7357801139
 31
0.0
  0
LINE
  5
7A
330
1F
100
AcDbEntity
  8
0
  6
Continuous
 62
     7
370
    25
100
AcDbLine
 10
578.7738202705
 20
539.7357801139
 30
0.0
 11
578.2996691287
 21
539.7357801139
 31
0.0
  0
LINE
  5
7B
330
1F
100
AcDbEntity
  8
0
  6
Continuous
 62
     7
370
    25
100
AcDbLine
 10
578.2996691287
 20
539.7357801139
 30
0.0
 11
578.2996691287
 21
543.2919136776
 31
0.0
  0
LINE
  5
7C
330
1F
100
AcDbEntity
  8
0
  6
Continuous
 62
     7
370
    25
100
AcDbLine
 10
578.2996691287
 20
543.2919136776
 30
0.0
 11
578.7738202705
 21
543.2919136776
 31
0.0
  0
SPLINE
  5
7D
330
1F
100
AcDbEntity
  8
0
  6
Continuous
 62
     7
370
    25
100
AcDbSpline
210
0.0
220
0.0
230
1.0
 70
     8
 71
     3
 72
    23
 73
    19
 74
     0
 42
0.00000001
 43
0.00000001
 40
0.0
 40
0.0
 40
0.0
 40
0.0
 40
0.0752223369389727
 40
0.1473750470340936
 40
0.2170509300909368
 40
0.2848866825880578
 40
0.3506629408400559
 40
0.4148069976528579
 40
0.4785445947517732
 40
0.5416257299663887
 40
0.603730431081847
 40
0.6631344915642774
 40
0.7206193207380969
 40
0.7772393848277037
 40
0.8324807553843847
 40
0.8878383285551636
 40
0.9436327053158885
 40
1.0
 40
1.0
 40
1.0
 40
1.0
 10
578.7738202704822
 20
543.2919136776304
 30
0.0
 10
578.7967248205562
 20
543.1711140158524
 30
0.0
 10
578.8415992459169
 20
542.9344442105698
 30
0.0
 10
578.9380608303901
 20
542.5928305091811
 30
0.0
 10
579.0495441606081
 20
542.2686427372657
 30
0.0
 10
579.1854197392665
 20
541.9651146691552
 30
0.0
 10
579.3391783084146
 20
541.6806432732898
 30
0.0
 10
579.5120580306427
 20
541.415124203703
 30
0.0
 10
579.7069420043347
 20
541.1709165351297
 30
0.0
 10
579.9197830862093
 20
540.9468547930009
 30
0.0
 10
580.145884073148
 20
540.7467682012718
 30
0.0
 10
580.3799605229237
 20
540.5708755175132
 30
0.0
 10
580.6225139134459
 20
540.4231529084642
 30
0.0
 10
580.8724073102926
 20
540.3036304067117
 30
0.0
 10
581.1283342339287
 20
540.2065320669177
 30
0.0
 10
581.3926606439677
 20
540.1411748196915
 30
0.0
 10
581.6636226795772
 20
540.0982186506795
 30
0.0
 10
581.8469950551209
 20
540.0936762645425
 30
0.0
 10
581.9391495727565
 20
540.0913934702986
 30
0.0
  0
SPLINE
  5
7E
330
1F
100
AcDbEntity
  8
0
  6
Continuous
 62
     7
370
    25
100
AcDbSpline
210
0.0
220
0.0
230
1.0
 70
     8
 71
     3
 72
    23
 73
    19
 74
     0
 42
0.00000001
 43
0.00000001
 40
0.0
 40
0.0
 40
0.0
 40
0.0
 40
0.0713240053270936
 40
0.1400334087483506
 40
0.2061577004265073
 40
0.2707456667353763
 40
0.3338082154535607
 40
0.3962765757935593
 40
0.45873058317968
 40
0.521994678222466
 40
0.5842531569287895
 40
0.6447619676421174
 40
0.7037341005842915
 40
0.7621164820998753
 40
0.8202896512044653
 40
0.8789661215063852
 40
0.9382475668783502
 40
1.0
 40
1.0
 40
1.0
 40
1.0
 10
581.9391495727565
 20
540.0913934702986
 30
0.0
 10
582.0126699455838
 20
540.0934661925994
 30
0.0
 10
582.1570155746917
 20
540.0975356551575
 30
0.0
 10
582.3686425624525
 20
540.1207932320534
 30
0.0
 10
582.5699656007832
 20
540.1640646948379
 30
0.0
 10
582.7610529426607
 20
540.2231052455475
 30
0.0
 10
582.9424164161807
 20
540.298662803282
 30
0.0
 10
583.1109509727778
 20
540.3949709201889
 30
0.0
 10
583.2721139086805
 20
540.5035539889882
 30
0.0
 10
583.4184059395121
 20
540.6313381186724
 30
0.0
 10
583.5513930484796
 20
540.7697752222821
 30
0.0
 10
583.6691018005266
 20
540.9160039940797
 30
0.0
 10
583.7675324273332
 20
541.0711021778002
 30
0.0
 10
583.8499427984539
 20
541.2325630304789
 30
0.0
 10
583.9131954669814
 20
541.4022387894958
 30
0.0
 10
583.9574724812254
 20
541.5786616035989
 30
0.0
 10
583.9840028350987
 20
541.7624661705642
 30
0.0
 10
583.9876314717355
 20
541.8872760177286
 30
0.0
 10
583.9894828305784
 20
541.9509549796512
 30
0.0
  0
SPLINE
  5
7F
330
1F
100
AcDbEntity
  8
0
  6
Continuous
 62
     7
370
    25
100
AcDbSpline
210
0.0
220
0.0
230
1.0
 70
     8
 71
     3
 72
    23
 73
    19
 74
     0
 42
0.00000001
 43
0.00000001
 40
0.0
 40
0.0
 40
0.0
 40
0.0
 40
0.0599203263568104
 40
0.1171413549497736
 40
0.1729068457850799
 40
0.2278218752759203
 40
0.2838872867710965
 40
0.3423706958447429
 40
0.4054296410866856
 40
0.4736260843039976
 40
0.5129672469254785
 40
0.5597169593627329
 40
0.613990381127436
 40
0.6755143293824997
 40
0.74531026282733
 40
0.8222633242364167
 40
0.9075332674715564
 40
1.0
 40
1.0
 40
1.0
 40
1.0
 10
583.9894828305784
 20
541.9509549796512
 30
0.0
 10
583.9870874431732
 20
542.0221304375801
 30
0.0
 10
583.9824045760504
 20
542.161275033211
 30
0.0
 10
583.9428922451726
 20
542.3636767968843
 30
0.0
 10
583.875918836888
 20
542.5521337972493
 30
0.0
 10
583.7819019050526
 20
542.7272115892547
 30
0.0
 10
583.6600773343189
 20
542.8882983917249
 30
0.0
 10
583.5073623348522
 20
543.0350426221408
 30
0.0
 10
583.321470808659
 20
543.163448479668
 30
0.0
 10
583.1433854126898
 20
543.2605133441955
 30
0.0
 10
582.9762565221613
 20
543.3356729443617
 30
0.0
 10
582.8201659930045
 20
543.3942510971409
 30
0.0
 10
582.6367799890746
 20
543.4543219514221
 30
0.0
 10
582.4263701094736
 20
543.5196730810887
 30
0.0
 10
582.1886465556128
 20
543.5876908797734
 30
0.0
 10
581.9223032067124
 20
543.6578744634284
 30
0.0
 10
581.6291711296062
 20
543.7319641954044
 30
0.0
 10
581.4237142481065
 20
543.7799800110552
 30
0.0
 10
581.3168261991086
 20
543.8049600303103
 30
0.0
  0
SPLINE
  5
80
330
1F
100
AcDbEntity
  8
0
  6
Continuous
 62
     7
370
    25
100
AcDbSpline
210
0.0
220
0.0
230
1.0
 70
     8
 71
     3
 72
    15
 73
    11
 74
     0
 42
0.00000001
 43
0.00000001
 40
0.0
 40
0.0
 40
0.0
 40
0.0
 40
0.1639987325900626
 40
0.3161348200793743
 40
0.4575655769490747
 40
0.5876914446777438
 40
0.7064552400856948
 40
0.814470752521952
 40
0.9117729478656001
 40
1.0
 40
1.0
 40
1.0
 40
1.0
 10
581.3168261991086
 20
543.8049600303103
 30
0.0
 10
581.1987489572418
 20
543.8339866758485
 30
0.0
 10
580.9711354444819
 20
543.8899403604887
 30
0.0
 10
580.6442239856416
 20
543.9807331125962
 30
0.0
 10
580.34425726748
 20
544.0742710257399
 30
0.0
 10
580.072070372605
 20
544.1726920080424
 30
0.0
 10
579.8264574034699
 20
544.2715307681586
 30
0.0
 10
579.6098207845903
 20
544.3756176362549
 30
0.0
 10
579.4183774204278
 20
544.4798206558462
 30
0.0
 10
579.305400873663
 20
544.5584416766471
 30
0.0
 10
579.2516757181047
 20
544.5958293176545
 30
0.0
  0
SPLINE
  5
81
330
1F
100
AcDbEntity
  8
0
  6
Continuous
 62
     7
370
    25
100
AcDbSpline
210
0.0
220
0.0
230
1.0
 70
     8
 71
     3
 72
    15
 73
    11
 74
     0
 42
0.00000001
 43
0.00000001
 40
0.0
 40
0.0
 40
0.0
 40
0.0
 40
0.1250157866556889
 40
0.2471004563302481
 40
0.3660952596173457
 40
0.4859878890077854
 40
0.6074221584786672
 40
0.7323323240052201
 40
0.8627067474779813
 40
1.0
 40
1.0
 40
1.0
 40
1.0
 10
579.2516757181047
 20
544.5958293176545
 30
0.0
 10
579.1854983762561
 20
544.649277170798
 30
0.0
 10
579.0546952848471
 20
544.754919740068
 30
0.0
 10
578.8843785411415
 20
544.9374712874204
 30
0.0
 10
578.7389855169577
 20
545.135975958623
 30
0.0
 10
578.6232684935293
 20
545.3525293070602
 30
0.0
 10
578.5286269852417
 20
545.5834414876083
 30
0.0
 10
578.4650549933809
 20
545.8321448121577
 30
0.0
 10
578.4250784931909
 20
546.0966219297197
 30
0.0
 10
578.4205365745195
 20
546.27866806303
 30
0.0
 10
578.418206914112
 20
546.3720439466076
 30
0.0
  0
SPLINE
  5
82
330
1F
100
AcDbEntity
  8
0
  6
Continuous
 62
     7
370
    25
100
AcDbSpline
210
0.0
220
0.0
230
1.0
 70
     8
 71
     3
 72
    23
 73
    19
 74
     0
 42
0.00000001
 43
0.00000001
 40
0.0
 40
0.0
 40
0.0
 40
0.0
 40
0.0668917701898044
 40
0.1312609278772525
 40
0.1933324626478873
 40
0.2545917355866496
 40
0.3142037890384515
 40
0.3743357248915617
 40
0.434733328672426
 40
0.496388465329489
 40
0.5584181976846826
 40
0.6193363211936112
 40
0.6797709364886063
 40
0.740752162511614
 40
0.8025464103053597
 40
0.8661762544116516
 40
0.9318576595375783
 40
1.0
 40
1.0
 40
1.0
 40
1.0
 10
578.418206914112
 20
546.3720439466076
 30
0.0
 10
578.4209509684154
 20
546.4696850351163
 30
0.0
 10
578.4263355936537
 20
546.6612849859057
 30
0.0
 10
578.461109030993
 20
546.9418843533747
 30
0.0
 10
578.5225958603767
 20
547.2093834417799
 30
0.0
 10
578.6095908132352
 20
547.4623497731745
 30
0.0
 10
578.7199219418084
 20
547.7029244025356
 30
0.0
 10
578.8552655515329
 20
547.9290246695165
 30
0.0
 10
579.0161524217186
 20
548.1413471609583
 30
0.0
 10
579.1988097910423
 20
548.3390303156348
 30
0.0
 10
579.4013813993538
 20
548.5174390481601
 30
0.0
 10
579.6190397331097
 20
548.6739920430975
 30
0.0
 10
579.8503160687105
 20
548.806759405517
 30
0.0
 10
580.0958014561785
 20
548.914019165213
 30
0.0
 10
580.3550787604655
 20
548.9982261363349
 30
0.0
 10
580.628307710547
 20
549.0559540485924
 30
0.0
 10
580.9143879094963
 20
549.0952606384553
 30
0.0
 10
581.1098652881077
 20
549.0985766629501
 30
0.0
 10
581.2094013310385
 20
549.1002651650102
 30
0.0
  0
SPLINE
  5
83
330
1F
100
AcDbEntity
  8
0
  6
Continuous
 62
     7
370
    25
100
AcDbSpline
210
0.0
220
0.0
230
1.0
 70
     8
 71
     3
 72
    15
 73
    11
 74
     0
 42
0.00000001
 43
0.00000001
 40
0.0
 40
0.0
 40
0.0
 40
0.0
 40
0.1179281939329656
 40
0.2331759063689428
 40
0.3483796376549774
 40
0.4639712901411496
 40
0.5837918366816117
 40
0.7123539496237589
 40
0.8508856899970217
 40
1.0
 40
1.0
 40
1.0
 40
1.0
 10
581.2094013310385
 20
549.1002651650102
 30
0.0
 10
581.3064803523087
 20
549.0979918664517
 30
0.0
 10
581.4984318103881
 20
549.0934969409029
 30
0.0
 10
581.7825964628149
 20
549.0508861195103
 30
0.0
 10
582.0593569743343
 20
548.9825754590933
 30
0.0
 10
582.3314865642718
 20
548.8851386951342
 30
0.0
 10
582.6014485663363
 20
548.7544729134527
 30
0.0
 10
582.8750019578582
 20
548.590814376472
 30
0.0
 10
583.1509230597716
 20
548.3871334973283
 30
0.0
 10
583.329928497661
 20
548.2322524573225
 30
0.0
 10
583.4227240438635
 20
548.1519628813563
 30
0.0
  0
LINE
  5
84
330
1F
100
AcDbEntity
  8
0
  6
Continuous
 62
     7
370
    25
100
AcDbLine
 10
583.4227240439
 20
548.1519628814
 30
0.0
 11
583.9894828306
 21
548.9817273796
 31
0.0
  0
LINE
  5
85
330
1F
100
AcDbEntity
  8
0
  6
Continuous
 62
     7
370
    25
100
AcDbLine
 10
583.9894828306
 20
548.9817273796
 30
0.0
 11
584.4636339724
 21
548.9817273796
 31
0.0
  0
LINE
  5
86
330
1F
100
AcDbEntity
  8
0
  6
Continuous
 62
     7
370
    25
100
AcDbLine
 10
584.4636339724
 20
548.9817273796
 30
0.0
 11
584.4636339724
 21
545.6626693868
 31
0.0
  0
LINE
  5
87
330
1F
100
AcDbEntity
  8
0
  6
Continuous
 62
     7
370
    25
100
AcDbLine
 10
584.4636339724
 20
545.6626693868
 30
0.0
 11
583.9894828306
 21
545.6626693868
 31
0.0
  0
SPLINE
  5
88
330
1F
100
AcDbEntity
  8
0
  6
Continuous
 62
     7
370
    25
100
AcDbSpline
210
0.0
220
0.0
230
1.0
 70
     8
 71
     3
 72
    23
 73
    19
 74
     0
 42
0.00000001
 43
0.00000001
 40
0.0
 40
0.0
 40
0.0
 40
0.0
 40
0.0870352952753094
 40
0.1695604789792878
 40
0.2469920905732916
 40
0.3199826702447463
 40
0.3888356865078757
 40
0.4539125169263279
 40
0.5158967525495439
 40
0.574777432895058
 40
0.6313497063533322
 40
0.6860485990378631
 40
0.7391199409415294
 40
0.7911160644014156
 40
0.8427070170884228
 40
0.8944333793329682
 40
0.9468315406610015
 40
1.0
 40
1.0
 40
1.0
 40
1.0
 10
583.9894828305784
 20
545.6626693867651
 30
0.0
 10
583.9573240434589
 20
545.7870935245589
 30
0.0
 10
583.8946729163486
 20
546.0294942234269
 30
0.0
 10
583.783840739339
 20
546.377118230273
 30
0.0
 10
583.6617058659136
 20
546.6987916065059
 30
0.0
 10
583.5286834741846
 20
546.9941869272518
 30
0.0
 10
583.3842426087691
 20
547.2636326537892
 30
0.0
 10
583.229030431205
 20
547.5081411495465
 30
0.0
 10
583.0600241473932
 20
547.7249458840563
 30
0.0
 10
582.8816803489225
 20
547.917339039755
 30
0.0
 10
582.6935401825706
 20
548.0842529071754
 30
0.0
 10
582.4992688413406
 20
548.2302840495158
 30
0.0
 10
582.2957355496375
 20
548.3502133501269
 30
0.0
 10
582.0876587059062
 20
548.4518594785482
 30
0.0
 10
581.8715441860032
 20
548.5299306250893
 30
0.0
 10
581.6481446309253
 20
548.585447711947
 30
0.0
 10
581.4179101223997
 20
548.6198223184043
 30
0.0
 10
581.261996723826
 20
548.6240066109484
 30
0.0
 10
581.1834711904698
 20
548.6261140231833
 30
0.0
  0
SPLINE
  5
89
330
1F
100
AcDbEntity
  8
0
  6
Continuous
 62
     7
370
    25
100
AcDbSpline
210
0.0
220
0.0
230
1.0
 70
     8
 71
     3
 72
    23
 73
    19
 74
     0
 42
0.00000001
 43
0.00000001
 40
0.0
 40
0.0
 40
0.0
 40
0.0
 40
0.0704219235523551
 40
0.1385880986938749
 40
0.2037940039532573
 40
0.2678041344405264
 40
0.3305492088672132
 40
0.392650284232037
 40
0.4551335236677005
 40
0.5183066535941587
 40
0.5808904523950466
 40
0.641494366982524
 40
0.7011721783661864
 40
0.7593213434968711
 40
0.8178401044997448
 40
0.877333230263037
 40
0.9376138820337555
 40
1.0
 40
1.0
 40
1.0
 40
1.0
 10
581.1834711904698
 20
548.6261140231833
 30
0.0
 10
581.1185935668456
 20
548.6246725415081
 30
0.0
 10
580.9909164735157
 20
548.6218357515626
 30
0.0
 10
580.8040602057865
 20
548.6000996019563
 30
0.0
 10
580.6263785646543
 20
548.5603269975123
 30
0.0
 10
580.457491635649
 20
548.5070522889946
 30
0.0
 10
580.2974628608283
 20
548.438109221485
 30
0.0
 10
580.1460046556954
 20
548.3546831339258
 30
0.0
 10
580.0051429031281
 20
548.2537317864169
 30
0.0
 10
579.8741798952649
 20
548.1396550394154
 30
0.0
 10
579.7567471323957
 20
548.0140782218222
 30
0.0
 10
579.6519495435015
 20
547.8819716397779
 30
0.0
 10
579.5623975349619
 20
547.7436830509866
 30
0.0
 10
579.4917402997246
 20
547.59701429394
 30
0.0
 10
579.4358623997476
 20
547.4443925102614
 30
0.0
 10
579.3951095245081
 20
547.2850319917483
 30
0.0
 10
579.3701547980384
 20
547.1186359940498
 30
0.0
 10
579.3677382239728
 20
547.0055679010347
 30
0.0
 10
579.3665091977659
 20
546.9480634978114
 30
0.0
  0
SPLINE
  5
8A
330
1F
100
AcDbEntity
  8
0
  6
Continuous
 62
     7
370
    25
100
AcDbSpline
210
0.0
220
0.0
230
1.0
 70
     8
 71
     3
 72
    23
 73
    19
 74
     0
 42
0.00000001
 43
0.00000001
 40
0.0
 40
0.0
 40
0.0
 40
0.0
 40
0.0687543658432227
 40
0.1337453319506633
 40
0.1970018551686568
 40
0.2586863116515192
 40
0.3201246720696803
 40
0.3822209484008719
 40
0.4471240962554041
 40
0.514715021663979
 40
0.5526313481491278
 40
0.5967687969018397
 40
0.6477809404635506
 40
0.7051787244217882
 40
0.7688284980195033
 40
0.8391134612025234
 40
0.9163019151165656
 40
0.9999999999999999
 40
0.9999999999999999
 40
0.9999999999999999
 40
0.9999999999999999
 10
579.3665091977659
 20
546.9480634978114
 30
0.0
 10
579.3681135833353
 20
546.8768598208981
 30
0.0
 10
579.3712345354078
 20
546.7383499344623
 30
0.0
 10
579.4109449447174
 20
546.5377492794211
 30
0.0
 10
579.4686681495585
 20
546.3495517326515
 30
0.0
 10
579.5531766604597
 20
546.1754897994311
 30
0.0
 10
579.6610889153775
 20
546.016343738329
 30
0.0
 10
579.7955459613129
 20
545.8743260911592
 30
0.0
 10
579.9514764071497
 20
545.7464484396706
 30
0.0
 10
580.1012532518513
 20
545.6524595675343
 30
0.0
 10
580.2405939712382
 20
545.5849601558568
 30
0.0
 10
580.3672900053315
 20
545.531143652347
 30
0.0
 10
580.5152983875629
 20
545.4765026254578
 30
0.0
 10
580.6835630677286
 20
545.418573680354
 30
0.0
 10
580.8733783311856
 20
545.3626686859996
 30
0.0
 10
581.0825291999872
 20
545.3000413864852
 30
0.0
 10
581.3139987382235
 20
545.2401796911175
 30
0.0
 10
581.4754607600215
 20
545.2001053664818
 30
0.0
 10
581.5594582287155
 20
545.1792574804493
 30
0.0
  0
SPLINE
  5
8B
330
1F
100
AcDbEntity
  8
0
  6
Continuous
 62
     7
370
    25
100
AcDbSpline
210
0.0
220
0.0
230
1.0
 70
     8
 71
     3
 72
    23
 73
    19
 74
     0
 42
0.00000001
 43
0.00000001
 40
0.0
 40
0.0
 40
0.0
 40
0.0
 40
0.0770103182905374
 40
0.1486591184878185
 40
0.2146968388508493
 40
0.2759046682980582
 40
0.3314596248143113
 40
0.3821319202566267
 40
0.4273962419368872
 40
0.467719269674557
 40
0.5409031584875399
 40
0.6093135172079381
 40
0.6747203937690824
 40
0.7379252933674741
 40
0.8005009621711298
 40
0.8642910167046499
 40
0.9303024292685557
 40
0.9999999999999999
 40
0.9999999999999999
 40
0.9999999999999999
 40
0.9999999999999999
 10
581.5594582287155
 20
545.1792574804493
 30
0.0
 10
581.6780667416455
 20
545.1492845950927
 30
0.0
 10
581.9070261508353
 20
545.0914255599067
 30
0.0
 10
582.2365525718096
 20
545.0033606427214
 30
0.0
 10
582.5396379410086
 20
544.9139869494435
 30
0.0
 10
582.8163731878143
 20
544.8258642080918
 30
0.0
 10
583.0674874220218
 20
544.7381187074787
 30
0.0
 10
583.2931727743514
 20
544.6544574882244
 30
0.0
 10
583.492361313457
 20
544.569386462867
 30
0.0
 10
583.7183407080544
 20
544.4572696276624
 30
0.0
 10
583.9689170623361
 20
544.3119081718286
 30
0.0
 10
584.2292488815566
 20
544.1095263326546
 30
0.0
 10
584.4510284309638
 20
543.8871252649241
 30
0.0
 10
584.628635813183
 20
543.6391607721235
 30
0.0
 10
584.7671307866754
 20
543.3707151874193
 30
0.0
 10
584.8687802462504
 20
543.0813421304937
 30
0.0
 10
584.925752962071
 20
542.768127303688
 30
0.0
 10
584.9337024218357
 20
542.5525116335048
 30
0.0
 10
584.9377851142323
 20
542.441775497558
 30
0.0
  0
LINE
  5
8C
330
1F
100
AcDbEntity
  8
0
  6
Continuous
 62
     7
370
    25
100
AcDbLine
 10
585.5304740415
 20
548.9817273796
 30
0.0
 11
589.560758747
 21
548.9817273796
 31
0.0
  0
LINE
  5
8D
330
1F
100
AcDbEntity
  8
0
  6
Continuous
 62
     7
370
    25
100
AcDbLine
 10
589.560758747
 20
548.9817273796
 30
0.0
 11
589.560758747
 21
548.5075762377
 31
0.0
  0
LINE
  5
8E
330
1F
100
AcDbEntity
  8
0
  6
Continuous
 62
     7
370
    25
100
AcDbLine
 10
589.560758747
 20
548.5075762377
 30
0.0
 11
589.1421721922
 21
548.5075762377
 31
0.0
  0
SPLINE
  5
8F
330
1F
100
AcDbEntity
  8
0
  6
Continuous
 62
     7
370
    25
100
AcDbSpline
210
0.0
220
0.0
230
1.0
 70
     8
 71
     3
 72
    15
 73
    11
 74
     0
 42
0.00000001
 43
0.00000001
 40
0.0
 40
0.0
 40
0.0
 40
0.0
 40
0.2392143429609946
 40
0.4327377816431449
 40
0.5833015307525694
 40
0.6941780457351726
 40
0.7795367919447377
 40
0.8531334685573183
 40
0.9252679699898384
 40
1.0
 40
1.0
 40
1.0
 40
1.0
 10
589.1421721921507
 20
548.5075762377267
 30
0.0
 10
589.0624697280306
 20
548.5068778366925
 30
0.0
 10
588.9182882918848
 20
548.5056144320386
 30
0.0
 10
588.7247339076629
 20
548.4886436223758
 30
0.0
 10
588.5743579621534
 20
548.466865557702
 30
0.0
 10
588.464564026976
 20
548.4280854321548
 30
0.0
 10
588.3887959997093
 20
548.3776385917793
 30
0.0
 10
588.3382886139593
 20
548.3189547780312
 30
0.0
 10
588.3032776105919
 20
548.2524173529288
 30
0.0
 10
588.3007359369285
 20
548.2030256514175
 30
0.0
 10
588.2994426236692
 20
548.1778930219251
 30
0.0
  0
SPLINE
  5
90
330
1F
100
AcDbEntity
  8
0
  6
Continuous
 62
     7
370
    25
100
AcDbSpline
210
0.0
220
0.0
230
1.0
 70
     8
 71
     3
 72
     9
 73
     5
 74
     0
 42
0.00000001
 43
0.00000001
 40
0.0
 40
0.0
 40
0.0
 40
0.0
 40
0.5032955404082216
 40
1.0
 40
1.0
 40
1.0
 40
1.0
 10
588.2994426236692
 20
548.1778930219251
 30
0.0
 10
588.3032057209964
 20
548.1255618390397
 30
0.0
 10
588.3106826347083
 20
548.0215847943734
 30
0.0
 10
588.361334702102
 20
547.9304967178858
 30
0.0
 10
588.386493809864
 20
547.8852528640788
 30
0.0
  0
LINE
  5
91
330
1F
100
AcDbEntity
  8
0
  6
Continuous
 62
     7
370
    25
100
AcDbLine
 10
588.3864938099
 20
547.8852528641
 30
0.0
 11
590.7794753538
 21
544.1883556801
 31
0.0
  0
LINE
  5
92
330
1F
100
AcDbEntity
  8
0
  6
Continuous
 62
     7
370
    25
100
AcDbLine
 10
590.7794753538
 20
544.1883556801
 30
0.0
 11
592.4482651147
 21
547.3499806766
 31
0.0
  0
SPLINE
  5
93
330
1F
100
AcDbEntity
  8
0
  6
Continuous
 62
     7
370
    25
100
AcDbSpline
210
0.0
220
0.0
230
1.0
 70
     8
 71
     3
 72
    11
 73
     7
 74
     0
 42
0.00000001
 43
0.00000001
 40
0.0
 40
0.0
 40
0.0
 40
0.0
 40
0.2501360026302282
 40
0.4959589922211581
 40
0.7456859414253814
 40
0.9999999999999999
 40
0.9999999999999999
 40
0.9999999999999999
 40
0.9999999999999999
 10
592.4482651146548
 20
547.3499806766258
 30
0.0
 10
592.4659226800567
 20
547.3847477178958
 30
0.0
 10
592.5009333472528
 20
547.4536823237481
 30
0.0
 10
592.5360496126466
 20
547.5648432904852
 30
0.0
 10
592.5565943939775
 20
547.6801266108364
 30
0.0
 10
592.5596863792287
 20
547.758605252872
 30
0.0
 10
592.5612464414182
 20
547.798201677884
 30
0.0
  0
SPLINE
  5
94
330
1F
100
AcDbEntity
  8
0
  6
Continuous
 62
     7
370
    25
100
AcDbSpline
210
0.0
220
0.0
230
1.0
 70
     8
 71
     3
 72
    15
 73
    11
 74
     0
 42
0.00000001
 43
0.00000001
 40
0.0
 40
0.0
 40
0.0
 40
0.0
 40
0.1273405261480936
 40
0.2449386185182314
 40
0.359873160316756
 40
0.4736324191737715
 40
0.5916570422319825
 40
0.7149125032734578
 40
0.8498974711216487
 40
1.0
 40
1.0
 40
1.0
 40
1.0
 10
592.5612464414182
 20
547.798201677884
 30
0.0
 10
592.558984026725
 20
547.8497107885956
 30
0.0
 10
592.55463228776
 20
547.9487882056636
 30
0.0
 10
592.5146563480836
 20
548.090015169834
 30
0.0
 10
592.4472250538107
 20
548.2138549233083
 30
0.0
 10
592.3539748498777
 20
548.3195789865775
 30
0.0
 10
592.2383360744257
 20
548.4066902801695
 30
0.0
 10
592.0967525982467
 20
548.4647576553285
 30
0.0
 10
591.9354224335118
 20
548.5032921433333
 30
0.0
 10
591.8200234206538
 20
548.5060985995351
 30
0.0
 10
591.7592642366876
 20
548.5075762377267
 30
0.0
  0
LINE
  5
95
330
1F
100
AcDbEntity
  8
0
  6
Continuous
 62
     7
370
    25
100
AcDbLine
 10
591.7592642367
 20
548.5075762377
 30
0.0
 11
591.3388255289
 21
548.5075762377
 31
0.0
  0
LINE
  5
96
330
1F
100
AcDbEntity
  8
0
  6
Continuous
 62
     7
370
    25
100
AcDbLine
 10
591.3388255289
 20
548.5075762377
 30
0.0
 11
591.3388255289
 21
548.9817273796
 31
0.0
  0
LINE
  5
97
330
1F
100
AcDbEntity
  8
0
  6
Continuous
 62
     7
370
    25
100
AcDbLine
 10
591.3388255289
 20
548.9817273796
 30
0.0
 11
594.7764213071
 21
548.9817273796
 31
0.0
  0
LINE
  5
98
330
1F
100
AcDbEntity
  8
0
  6
Continuous
 62
     7
370
    25
100
AcDbLine
 10
594.7764213071
 20
548.9817273796
 30
0.0
 11
594.7764213071
 21
548.5075762377
 31
0.0
  0
SPLINE
  5
99
330
1F
100
AcDbEntity
  8
0
  6
Continuous
 62
     7
370
    25
100
AcDbSpline
210
0.0
220
0.0
230
1.0
 70
     8
 71
     3
 72
    15
 73
    11
 74
     0
 42
0.00000001
 43
0.00000001
 40
0.0
 40
0.0
 40
0.0
 40
0.0
 40
0.1430917064197516
 40
0.2717519418153952
 40
0.3877938732777739
 40
0.4924865907152819
 40
0.5982494489180858
 40
0.7159071891920991
 40
0.8502757251069695
 40
1.0
 40
1.0
 40
1.0
 40
1.0
 10
594.7764213071409
 20
548.5075762377267
 30
0.0
 10
594.6744293597429
 20
548.505319621385
 30
0.0
 10
594.4807318321332
 20
548.5010339790642
 30
0.0
 10
594.2062302232953
 20
548.4630321999927
 30
0.0
 10
593.9653724143288
 20
548.3973919282963
 30
0.0
 10
593.7513945495465
 20
548.3027565274824
 30
0.0
 10
593.5602300835645
 20
548.1658455700617
 30
0.0
 10
593.3768562460276
 20
547.9877605902792
 30
0.0
 10
593.1982909923601
 20
547.762923168232
 30
0.0
 10
593.0916173550534
 20
547.5907465839988
 30
0.0
 10
593.0353975832452
 20
547.5000050613445
 30
0.0
  0
LINE
  5
9A
330
1F
100
AcDbEntity
  8
0
  6
Continuous
 62
     7
370
    25
100
AcDbLine
 10
593.0353975832
 20
547.5000050613
 30
0.0
 11
590.9832121725
 21
543.610483976
 31
0.0
  0
LINE
  5
9B
330
1F
100
AcDbEntity
  8
0
  6
Continuous
 62
     7
370
    25
100
AcDbLine
 10
590.9832121725
 20
543.610483976
 30
0.0
 11
590.9832121725
 21
540.6748216331
 31
0.0
  0
SPLINE
  5
9C
330
1F
100
AcDbEntity
  8
0
  6
Continuous
 62
     7
370
    25
100
AcDbSpline
210
0.0
220
0.0
230
1.0
 70
     8
 71
     3
 72
    11
 73
     7
 74
     0
 42
0.00000001
 43
0.00000001
 40
0.0
 40
0.0
 40
0.0
 40
0.0
 40
0.2916887372158324
 40
0.5508890952403643
 40
0.7799284795104787
 40
1.0
 40
1.0
 40
1.0
 40
1.0
 10
590.9832121725254
 20
540.6748216330935
 30
0.0
 10
590.9843344767719
 20
540.6388657112018
 30
0.0
 10
590.9864540826806
 20
540.5709586488017
 30
0.0
 10
591.0098649698908
 20
540.4770549048128
 30
0.0
 10
591.051347458029
 20
540.3988032190086
 30
0.0
 10
591.0913894879202
 20
540.3603008752414
 30
0.0
 10
591.1110107224711
 20
540.3414341114965
 30
0.0
  0
SPLINE
  5
9D
330
1F
100
AcDbEntity
  8
0
  6
Continuous
 62
     7
370
    25
100
AcDbSpline
210
0.0
220
0.0
230
1.0
 70
     8
 71
     3
 72
    11
 73
     7
 74
     0
 42
0.00000001
 43
0.00000001
 40
0.0
 40
0.0
 40
0.0
 40
0.0
 40
0.2078604486642851
 40
0.4401691786100438
 40
0.7017832410804613
 40
1.0
 40
1.0
 40
1.0
 40
1.0
 10
591.1110107224711
 20
540.3414341114965
 30
0.0
 10
591.1430050714075
 20
540.3207876877166
 30
0.0
 10
591.2107569038604
 20
540.2770664340826
 30
0.0
 10
591.3343705440861
 20
540.2396935814767
 30
0.0
 10
591.476481606556
 20
540.2121231285169
 30
0.0
 10
591.5788089823402
 20
540.2106930470661
 30
0.0
 10
591.6333178396397
 20
540.2099312557555
 30
0.0
  0
LINE
  5
9E
330
1F
100
AcDbEntity
  8
0
  6
Continuous
 62
     7
370
    25
100
AcDbLine
 10
591.6333178396
 20
540.2099312558
 30
0.0
 11
592.405665598
 21
540.2099312558
 31
0.0
  0
LINE
  5
9F
330
1F
100
AcDbEntity
  8
0
  6
Continuous
 62
     7
370
    25
100
AcDbLine
 10
592.405665598
 20
540.2099312558
 30
0.0
 11
592.405665598
 21
539.7357801139
 31
0.0
  0
LINE
  5
A0
330
1F
100
AcDbEntity
  8
0
  6
Continuous
 62
     7
370
    25
100
AcDbLine
 10
592.405665598
 20
539.7357801139
 30
0.0
 11
588.256843107
 21
539.7357801139
 31
0.0
  0
LINE
  5
A1
330
1F
100
AcDbEntity
  8
0
  6
Continuous
 62
     7
370
    25
100
AcDbLine
 10
588.256843107
 20
539.7357801139
 30
0.0
 11
588.256843107
 21
540.2099312558
 31
0.0
  0
LINE
  5
A2
330
1F
100
AcDbEntity
  8
0
  6
Continuous
 62
     7
370
    25
100
AcDbLine
 10
588.256843107
 20
540.2099312558
 30
0.0
 11
589.0643817704
 21
540.2099312558
 31
0.0
  0
SPLINE
  5
A3
330
1F
100
AcDbEntity
  8
0
  6
Continuous
 62
     7
370
    25
100
AcDbSpline
210
0.0
220
0.0
230
1.0
 70
     8
 71
     3
 72
    15
 73
    11
 74
     0
 42
0.00000001
 43
0.00000001
 40
0.0
 40
0.0
 40
0.0
 40
0.0
 40
0.1729682362893123
 40
0.3229704106395098
 40
0.4502396183400628
 40
0.5630306325483798
 40
0.6673576139569878
 40
0.7721515750322717
 40
0.8815462929395557
 40
0.9999999999999999
 40
0.9999999999999999
 40
0.9999999999999999
 40
0.9999999999999999
 10
589.0643817704447
 20
540.2099312557555
 30
0.0
 10
589.1151518348802
 20
540.2108780123207
 30
0.0
 10
589.2099509084599
 20
540.2126458187296
 30
0.0
 10
589.3399986061487
 20
540.2373143008602
 30
0.0
 10
589.4495123903661
 20
540.2724232537133
 30
0.0
 10
589.5355064577434
 20
540.327586474854
 30
0.0
 10
589.6005529928509
 20
540.3969012440537
 30
0.0
 10
589.6486540849635
 20
540.4780312110304
 30
0.0
 10
589.6738864810372
 20
540.5733611567772
 30
0.0
 10
589.6774460077947
 20
540.6401167657878
 30
0.0
 10
589.6792965325016
 20
540.6748216330935
 30
0.0
  0
LINE
  5
A4
330
1F
100
AcDbEntity
  8
0
  6
Continuous
 62
     7
370
    25
100
AcDbLine
 10
589.6792965325
 20
540.6748216331
 30
0.0
 11
589.6792965325
 21
543.5289892485
 31
0.0
  0
LINE
  5
A5
330
1F
100
AcDbEntity
  8
0
  6
Continuous
 62
     7
370
    25
100
AcDbLine
 10
589.6792965325
 20
543.5289892485
 30
0.0
 11
586.7991987765
 21
547.977860509
 31
0.0
  0
SPLINE
  5
A6
330
1F
100
AcDbEntity
  8
0
  6
Continuous
 62
     7
370
    25
100
AcDbSpline
210
0.0
220
0.0
230
1.0
 70
     8
 71
     3
 72
    15
 73
    11
 74
     0
 42
0.00000001
 43
0.00000001
 40
0.0
 40
0.0
 40
0.0
 40
0.0
 40
0.1143736908781476
 40
0.2193695735567712
 40
0.3186696894370932
 40
0.4143521776777631
 40
0.5203718293275822
 40
0.65208968349078
 40
0.8117303113605571
 40
1.0
 40
1.0
 40
1.0
 40
1.0
 10
586.7991987764824
 20
547.9778605089668
 30
0.0
 10
586.7674944573699
 20
548.023084411473
 30
0.0
 10
586.7066853420025
 20
548.1098241864262
 30
0.0
 10
586.6020450271054
 20
548.2234473065358
 30
0.0
 10
586.4876397623326
 20
548.3129867021961
 30
0.0
 10
586.3613727161556
 20
548.3860559445855
 30
0.0
 10
586.2085327436448
 20
548.4393093907241
 30
0.0
 10
586.0193319119427
 20
548.4727986705044
 30
0.0
 10
585.7892051358158
 20
548.4990078318858
 30
0.0
 10
585.6213226783495
 20
548.5045676005445
 30
0.0
 10
585.530474041516
 20
548.5075762377267
 30
0.0
  0
LINE
  5
A7
330
1F
100
AcDbEntity
  8
0
  6
Continuous
 62
     7
370
    25
100
AcDbLine
 10
585.5304740415
 20
548.5075762377
 30
0.0
 11
585.5304740415
 21
548.9817273796
 31
0.0
  0
LINE
  5
A8
330
1F
100
AcDbEntity
  8
0
  6
Continuous
 62
     7
370
    25
100
AcDbLine
 10
598.8659749054
 20
547.3925801933
 30
0.0
 11
597.2471932728
 21
543.2919136776
 31
0.0
  0
LINE
  5
A9
330
1F
100
AcDbEntity
  8
0
  6
Continuous
 62
     7
370
    25
100
AcDbLine
 10
597.2471932728
 20
543.2919136776
 30
0.0
 11
600.4291919511
 21
543.2919136776
 31
0.0
  0
LINE
  5
AA
330
1F
100
AcDbEntity
  8
0
  6
Continuous
 62
     7
370
    25
100
AcDbLine
 10
600.4291919511
 20
543.2919136776
 30
0.0
 11
598.8659749054
 21
547.3925801933
 31
0.0
  0
LINE
  5
AB
330
1F
100
AcDbEntity
  8
0
  6
Continuous
 62
     7
370
    25
100
AcDbLine
 10
599.0419294307
 20
549.100265165
 30
0.0
 11
599.6012796058
 21
549.100265165
 31
0.0
  0
LINE
  5
AC
330
1F
100
AcDbEntity
  8
0
  6
Continuous
 62
     7
370
    25
100
AcDbLine
 10
599.6012796058
 20
549.100265165
 30
0.0
 11
602.7980955073
 21
540.7285340671
 31
0.0
  0
SPLINE
  5
AD
330
1F
100
AcDbEntity
  8
0
  6
Continuous
 62
     7
370
    25
100
AcDbSpline
210
0.0
220
0.0
230
1.0
 70
     8
 71
     3
 72
    15
 73
    11
 74
     0
 42
0.00000001
 43
0.00000001
 40
0.0
 40
0.0
 40
0.0
 40
0.0
 40
0.1299734032950295
 40
0.2496112418975072
 40
0.368195452126697
 40
0.4840557170942909
 40
0.6012790908948594
 40
0.724733333659541
 40
0.8572246155126869
 40
1.0
 40
1.0
 40
1.0
 40
1.0
 10
602.7980955073457
 20
540.7285340671286
 30
0.0
 10
602.8159793752545
 20
540.6871269055471
 30
0.0
 10
602.850324974935
 20
540.6076053052519
 30
0.0
 10
602.9214713069861
 20
540.5010736935493
 30
0.0
 10
603.0038397264618
 20
540.4092483581353
 30
0.0
 10
603.102739435789
 20
540.3372444363696
 30
0.0
 10
603.2113332215665
 20
540.276986728621
 30
0.0
 10
603.336039432199
 20
540.2408820624282
 30
0.0
 10
603.4716166510407
 20
540.2124399970155
 30
0.0
 10
603.567180175165
 20
540.2107880750569
 30
0.0
 10
603.6167470881561
 20
540.2099312557555
 30
0.0
  0
LINE
  5
AE
330
1F
100
AcDbEntity
  8
0
  6
Continuous
 62
     7
370
    25
100
AcDbLine
 10
603.6167470882
 20
540.2099312558
 30
0.0
 11
603.9038307873
 21
540.2099312558
 31
0.0
  0
LINE
  5
AF
330
1F
100
AcDbEntity
  8
0
  6
Continuous
 62
     7
370
    25
100
AcDbLine
 10
603.9038307873
 20
540.2099312558
 30
0.0
 11
603.9038307873
 21
539.7357801139
 31
0.0
  0
LINE
  5
B0
330
1F
100
AcDbEntity
  8
0
  6
Continuous
 62
     7
370
    25
100
AcDbLine
 10
603.9038307873
 20
539.7357801139
 30
0.0
 11
600.1106216527
 21
539.7357801139
 31
0.0
  0
LINE
  5
B1
330
1F
100
AcDbEntity
  8
0
  6
Continuous
 62
     7
370
    25
100
AcDbLine
 10
600.1106216527
 20
539.7357801139
 30
0.0
 11
600.1106216527
 21
540.2099312558
 31
0.0
  0
LINE
  5
B2
330
1F
100
AcDbEntity
  8
0
  6
Continuous
 62
     7
370
    25
100
AcDbLine
 10
600.1106216527
 20
540.2099312558
 30
0.0
 11
600.412522575
 21
540.2099312558
 31
0.0
  0
SPLINE
  5
B3
330
1F
100
AcDbEntity
  8
0
  6
Continuous
 62
     7
370
    25
100
AcDbSpline
210
0.0
220
0.0
230
1.0
 70
     8
 71
     3
 72
    11
 73
     7
 74
     0
 42
0.00000001
 43
0.00000001
 40
0.0
 40
0.0
 40
0.0
 40
0.0
 40
0.3215360424767659
 40
0.5944686686435072
 40
0.8185063216882387
 40
1.0
 40
1.0
 40
1.0
 40
1.0
 10
600.4125225750289
 20
540.2099312557555
 30
0.0
 10
600.5040050775747
 20
540.2108192902017
 30
0.0
 10
600.673141579578
 20
540.2124611237297
 30
0.0
 10
600.9044727798639
 20
540.2370514158407
 30
0.0
 10
601.0956293463489
 20
540.2705494433025
 30
0.0
 10
601.2020621666328
 20
540.3156797790423
 30
0.0
 10
601.249695684817
 20
540.3358776528032
 30
0.0
  0
SPLINE
  5
B4
330
1F
100
AcDbEntity
  8
0
  6
Continuous
 62
     7
370
    25
100
AcDbSpline
210
0.0
220
0.0
230
1.0
 70
     8
 71
     3
 72
    11
 73
     7
 74
     0
 42
0.00000001
 43
0.00000001
 40
0.0
 40
0.0
 40
0.0
 40
0.0
 40
0.2612114988329937
 40
0.5072992879596427
 40
0.744540436591631
 40
1.0
 40
1.0
 40
1.0
 40
1.0
 10
601.249695684817
 20
540.3358776528032
 30
0.0
 10
601.2746928716911
 20
540.3513336192344
 30
0.0
 10
601.3232399500505
 20
540.381350677443
 30
0.0
 10
601.3792252500305
 20
540.4455563715184
 30
0.0
 10
601.4097280901839
 20
540.5242410784751
 30
0.0
 10
601.4141149236901
 20
540.5794954056311
 30
0.0
 10
601.4163894456156
 20
540.6081441287741
 30
0.0
  0
SPLINE
  5
B5
330
1F
100
AcDbEntity
  8
0
  6
Continuous
 62
     7
370
    25
100
AcDbSpline
210
0.0
220
0.0
230
1.0
 70
     8
 71
     3
 72
     9
 73
     5
 74
     0
 42
0.00000001
 43
0.00000001
 40
0.0
 40
0.0
 40
0.0
 40
0.0
 40
0.4781784497919727
 40
1.0
 40
1.0
 40
1.0
 40
1.0
 10
601.4163894456156
 20
540.6081441287741
 30
0.0
 10
601.4143695041942
 20
540.6455221242985
 30
0.0
 10
601.4101452623398
 20
540.7236895857153
 30
0.0
 10
601.3838217823215
 20
540.797462591143
 30
0.0
 10
601.3700856231715
 20
540.8359589351987
 30
0.0
  0
LINE
  5
B6
330
1F
100
AcDbEntity
  8
0
  6
Continuous
 62
     7
370
    25
100
AcDbLine
 10
601.3700856232
 20
540.8359589352
 30
0.0
 11
600.6107029351
 21
542.8177625358
 31
0.0
  0
LINE
  5
B7
330
1F
100
AcDbEntity
  8
0
  6
Continuous
 62
     7
370
    25
100
AcDbLine
 10
600.6107029351
 20
542.8177625358
 30
0.0
 11
597.0601258301
 21
542.8177625358
 31
0.0
  0
LINE
  5
B8
330
1F
100
AcDbEntity
  8
0
  6
Continuous
 62
     7
370
    25
100
AcDbLine
 10
597.0601258301
 20
542.8177625358
 30
0.0
 11
596.6137569817
 21
541.6805406566
 31
0.0
  0
SPLINE
  5
B9
330
1F
100
AcDbEntity
  8
0
  6
Continuous
 62
     7
370
    25
100
AcDbSpline
210
0.0
220
0.0
230
1.0
 70
     8
 71
     3
 72
    11
 73
     7
 74
     0
 42
0.00000001
 43
0.00000001
 40
0.0
 40
0.0
 40
0.0
 40
0.0
 40
0.3060100820872105
 40
0.5729062690074069
 40
0.8043864063910832
 40
1.0
 40
1.0
 40
1.0
 40
1.0
 10
596.6137569817203
 20
541.680540656578
 30
0.0
 10
596.5887678322541
 20
541.6092063541583
 30
0.0
 10
596.5419836208036
 20
541.475655626768
 30
0.0
 10
596.4897486726298
 20
541.2839768734773
 30
0.0
 10
596.4554319978081
 20
541.1156023930564
 30
0.0
 10
596.4496921389642
 20
541.0101868173108
 30
0.0
 10
596.4470632209217
 20
540.9619053322465
 30
0.0
  0
SPLINE
  5
BA
330
1F
100
AcDbEntity
  8
0
  6
Continuous
 62
     7
370
    25
100
AcDbSpline
210
0.0
220
0.0
230
1.0
 70
     8
 71
     3
 72
    15
 73
    11
 74
     0
 42
0.00000001
 43
0.00000001
 40
0.0
 40
0.0
 40
0.0
 40
0.0
 40
0.1016934011887232
 40
0.2002782608535675
 40
0.3050101986331262
 40
0.4186983427681074
 40
0.5428566581466157
 40
0.6780535252752978
 40
0.8290733472054302
 40
1.0
 40
1.0
 40
1.0
 40
1.0
 10
596.4470632209217
 20
540.9619053322465
 30
0.0
 10
596.450732640629
 20
540.9114330875002
 30
0.0
 10
596.4579593140288
 20
540.8120314224853
 30
0.0
 10
596.513345488292
 20
540.6688739592952
 30
0.0
 10
596.6054987584572
 20
540.5403961858447
 30
0.0
 10
596.7286428671208
 20
540.4219990243142
 30
0.0
 10
596.8882146876139
 20
540.3254738061604
 30
0.0
 10
597.0812274931378
 20
540.2586125734683
 30
0.0
 10
597.3045236080986
 20
540.214950293769
 30
0.0
 10
597.4642779828187
 20
540.21167184034
 30
0.0
 10
597.5490941950898
 20
540.2099312557555
 30
0.0
  0
LINE
  5
BB
330
1F
100
AcDbEntity
  8
0
  6
Continuous
 62
     7
370
    25
100
AcDbLine
 10
597.5490941951
 20
540.2099312558
 30
0.0
 11
597.858403729
 21
540.2099312558
 31
0.0
  0
LINE
  5
BC
330
1F
100
AcDbEntity
  8
0
  6
Continuous
 62
     7
370
    25
100
AcDbLine
 10
597.858403729
 20
540.2099312558
 30
0.0
 11
597.858403729
 21
539.7357801139
 31
0.0
  0
LINE
  5
BD
330
1F
100
AcDbEntity
  8
0
  6
Continuous
 62
     7
370
    25
100
AcDbLine
 10
597.858403729
 20
539.7357801139
 30
0.0
 11
594.5393457362
 21
539.7357801139
 31
0.0
  0
LINE
  5
BE
330
1F
100
AcDbEntity
  8
0
  6
Continuous
 62
     7
370
    25
100
AcDbLine
 10
594.5393457362
 20
539.7357801139
 30
0.0
 11
594.5393457362
 21
540.2099312558
 31
0.0
  0
SPLINE
  5
BF
330
1F
100
AcDbEntity
  8
0
  6
Continuous
 62
     7
370
    25
100
AcDbSpline
210
0.0
220
0.0
230
1.0
 70
     8
 71
     3
 72
    15
 73
    11
 74
     0
 42
0.00000001
 43
0.00000001
 40
0.0
 40
0.0
 40
0.0
 40
0.0
 40
0.129507536780423
 40
0.2469890984807077
 40
0.3549889590734808
 40
0.4559669984370197
 40
0.5625921896880719
 40
0.6876091982654605
 40
0.832172038261855
 40
1.0
 40
1.0
 40
1.0
 40
1.0
 10
594.5393457362275
 20
540.2099312557555
 30
0.0
 10
594.6253793104097
 20
540.2124589857286
 30
0.0
 10
594.7894574440428
 20
540.2172797225197
 30
0.0
 10
595.0218756925012
 20
540.2620250514107
 30
0.0
 10
595.2269665463638
 20
540.3350675570623
 30
0.0
 10
595.4080969742379
 20
540.4432701826763
 30
0.0
 10
595.5701501930332
 20
540.5957238624602
 30
0.0
 10
595.7150202006839
 20
540.8001995282475
 30
0.0
 10
595.8597416588846
 20
541.0525112910422
 30
0.0
 10
595.9393853106004
 20
541.2441810233678
 30
0.0
 10
595.9821728435836
 20
541.3471531349809
 30
0.0
  0
LINE
  5
C0
330
1F
100
AcDbEntity
  8
0
  6
Continuous
 62
     7
370
    25
100
AcDbLine
 10
595.9821728436
 20
541.347153135
 30
0.0
 11
599.0419294307
 21
549.100265165
 31
0.0
  0
LINE
  5
C1
330
1F
100
AcDbEntity
  8
0
  6
Continuous
 62
     7
370
    25
100
AcDbLine
 10
572.550586534
 20
547.3925801933
 30
0.0
 11
570.9318049014
 21
543.2919136776
 31
0.0
  0
LINE
  5
C2
330
1F
100
AcDbEntity
  8
0
  6
Continuous
 62
     7
370
    25
100
AcDbLine
 10
570.9318049014
 20
543.2919136776
 30
0.0
 11
574.1138035797
 21
543.2919136776
 31
0.0
  0
LINE
  5
C3
330
1F
100
AcDbEntity
  8
0
  6
Continuous
 62
     7
370
    25
100
AcDbLine
 10
574.1138035797
 20
543.2919136776
 30
0.0
 11
572.550586534
 21
547.3925801933
 31
0.0
  0
LINE
  5
C4
330
1F
100
AcDbEntity
  8
0
  6
Continuous
 62
     7
370
    25
100
AcDbLine
 10
572.7265410593
 20
549.100265165
 30
0.0
 11
573.2858912344
 21
549.100265165
 31
0.0
  0
LINE
  5
C5
330
1F
100
AcDbEntity
  8
0
  6
Continuous
 62
     7
370
    25
100
AcDbLine
 10
573.2858912344
 20
549.100265165
 30
0.0
 11
576.482707136
 21
540.7285340671
 31
0.0
  0
SPLINE
  5
C6
330
1F
100
AcDbEntity
  8
0
  6
Continuous
 62
     7
370
    25
100
AcDbSpline
210
0.0
220
0.0
230
1.0
 70
     8
 71
     3
 72
    15
 73
    11
 74
     0
 42
0.00000001
 43
0.00000001
 40
0.0
 40
0.0
 40
0.0
 40
0.0
 40
0.1299734032950283
 40
0.2496112418975061
 40
0.3681954521266961
 40
0.4840557170942929
 40
0.6012790908948586
 40
0.7247333336595437
 40
0.8572246155126833
 40
1.0
 40
1.0
 40
1.0
 40
1.0
 10
576.4827071359514
 20
540.7285340671286
 30
0.0
 10
576.5005910038603
 20
540.6871269055471
 30
0.0
 10
576.5349366035407
 20
540.6076053052519
 30
0.0
 10
576.6060829355918
 20
540.5010736935493
 30
0.0
 10
576.6884513550676
 20
540.4092483581353
 30
0.0
 10
576.7873510643947
 20
540.3372444363697
 30
0.0
 10
576.8959448501722
 20
540.276986728621
 30
0.0
 10
577.0206510608048
 20
540.2408820624282
 30
0.0
 10
577.1562282796464
 20
540.2124399970155
 30
0.0
 10
577.2517918037709
 20
540.2107880750569
 30
0.0
 10
577.3013587167619
 20
540.2099312557555
 30
0.0
  0
LINE
  5
C7
330
1F
100
AcDbEntity
  8
0
  6
Continuous
 62
     7
370
    25
100
AcDbLine
 10
577.5884424159
 20
540.2099312558
 30
0.0
 11
577.5884424159
 21
539.7357801139
 31
0.0
  0
LINE
  5
C8
330
1F
100
AcDbEntity
  8
0
  6
Continuous
 62
     7
370
    25
100
AcDbLine
 10
577.5884424159
 20
539.7357801139
 30
0.0
 11
573.7952332813
 21
539.7357801139
 31
0.0
  0
LINE
  5
C9
330
1F
100
AcDbEntity
  8
0
  6
Continuous
 62
     7
370
    25
100
AcDbLine
 10
573.7952332813
 20
539.7357801139
 30
0.0
 11
573.7952332813
 21
540.2099312558
 31
0.0
  0
LINE
  5
CA
330
1F
100
AcDbEntity
  8
0
  6
Continuous
 62
     7
370
    25
100
AcDbLine
 10
573.7952332813
 20
540.2099312558
 30
0.0
 11
574.0971342036
 21
540.2099312558
 31
0.0
  0
SPLINE
  5
CB
330
1F
100
AcDbEntity
  8
0
  6
Continuous
 62
     7
370
    25
100
AcDbSpline
210
0.0
220
0.0
230
1.0
 70
     8
 71
     3
 72
    11
 73
     7
 74
     0
 42
0.00000001
 43
0.00000001
 40
0.0
 40
0.0
 40
0.0
 40
0.0
 40
0.3215360424767659
 40
0.5944686686435072
 40
0.8185063216882387
 40
1.0
 40
1.0
 40
1.0
 40
1.0
 10
574.0971342036346
 20
540.2099312557555
 30
0.0
 10
574.1886167061804
 20
540.2108192902017
 30
0.0
 10
574.3577532081837
 20
540.2124611237297
 30
0.0
 10
574.5890844084697
 20
540.2370514158407
 30
0.0
 10
574.7802409749547
 20
540.2705494433025
 30
0.0
 10
574.8866737952386
 20
540.3156797790423
 30
0.0
 10
574.9343073134229
 20
540.3358776528032
 30
0.0
  0
SPLINE
  5
CC
330
1F
100
AcDbEntity
  8
0
  6
Continuous
 62
     7
370
    25
100
AcDbSpline
210
0.0
220
0.0
230
1.0
 70
     8
 71
     3
 72
    11
 73
     7
 74
     0
 42
0.00000001
 43
0.00000001
 40
0.0
 40
0.0
 40
0.0
 40
0.0
 40
0.261211498832994
 40
0.5072992879596401
 40
0.7445404365916286
 40
1.0
 40
1.0
 40
1.0
 40
1.0
 10
574.9343073134229
 20
540.3358776528032
 30
0.0
 10
574.959304500297
 20
540.3513336192344
 30
0.0
 10
575.0078515786563
 20
540.381350677443
 30
0.0
 10
575.0638368786363
 20
540.4455563715184
 30
0.0
 10
575.0943397187897
 20
540.5242410784751
 30
0.0
 10
575.0987265522958
 20
540.5794954056311
 30
0.0
 10
575.1010010742214
 20
540.6081441287741
 30
0.0
  0
SPLINE
  5
CD
330
1F
100
AcDbEntity
  8
0
  6
Continuous
 62
     7
370
    25
100
AcDbSpline
210
0.0
220
0.0
230
1.0
 70
     8
 71
     3
 72
     9
 73
     5
 74
     0
 42
0.00000001
 43
0.00000001
 40
0.0
 40
0.0
 40
0.0
 40
0.0
 40
0.4781784497919768
 40
1.0
 40
1.0
 40
1.0
 40
1.0
 10
575.1010010742214
 20
540.6081441287741
 30
0.0
 10
575.0989811327998
 20
540.6455221242985
 30
0.0
 10
575.0947568909456
 20
540.7236895857153
 30
0.0
 10
575.0684334109272
 20
540.797462591143
 30
0.0
 10
575.0546972517773
 20
540.8359589351987
 30
0.0
  0
LINE
  5
CE
330
1F
100
AcDbEntity
  8
0
  6
Continuous
 62
     7
370
    25
100
AcDbLine
 10
575.0546972518
 20
540.8359589352
 30
0.0
 11
574.2953145637
 21
542.8177625358
 31
0.0
  0
LINE
  5
CF
330
1F
100
AcDbEntity
  8
0
  6
Continuous
 62
     7
370
    25
100
AcDbLine
 10
574.2953145637
 20
542.8177625358
 30
0.0
 11
570.7447374587
 21
542.8177625358
 31
0.0
  0
LINE
  5
D0
330
1F
100
AcDbEntity
  8
0
  6
Continuous
 62
     7
370
    25
100
AcDbLine
 10
570.7447374587
 20
542.8177625358
 30
0.0
 11
570.2983686103
 21
541.6805406566
 31
0.0
  0
SPLINE
  5
D1
330
1F
100
AcDbEntity
  8
0
  6
Continuous
 62
     7
370
    25
100
AcDbSpline
210
0.0
220
0.0
230
1.0
 70
     8
 71
     3
 72
    11
 73
     7
 74
     0
 42
0.00000001
 43
0.00000001
 40
0.0
 40
0.0
 40
0.0
 40
0.0
 40
0.3060100820872108
 40
0.5729062690074063
 40
0.8043864063910832
 40
1.0
 40
1.0
 40
1.0
 40
1.0
 10
570.2983686103261
 20
541.680540656578
 30
0.0
 10
570.2733794608599
 20
541.6092063541583
 30
0.0
 10
570.2265952494095
 20
541.475655626768
 30
0.0
 10
570.1743603012355
 20
541.2839768734773
 30
0.0
 10
570.1400436264138
 20
541.1156023930564
 30
0.0
 10
570.13430376757
 20
541.0101868173108
 30
0.0
 10
570.1316748495274
 20
540.9619053322465
 30
0.0
  0
SPLINE
  5
D2
330
1F
100
AcDbEntity
  8
0
  6
Continuous
 62
     7
370
    25
100
AcDbSpline
210
0.0
220
0.0
230
1.0
 70
     8
 71
     3
 72
    15
 73
    11
 74
     0
 42
0.00000001
 43
0.00000001
 40
0.0
 40
0.0
 40
0.0
 40
0.0
 40
0.1016934011887229
 40
0.2002782608535683
 40
0.3050101986331277
 40
0.4186983427681074
 40
0.5428566581466149
 40
0.6780535252752984
 40
0.8290733472054322
 40
0.9999999999999999
 40
0.9999999999999999
 40
0.9999999999999999
 40
0.9999999999999999
 10
570.1316748495274
 20
540.9619053322465
 30
0.0
 10
570.1353442692347
 20
540.9114330875002
 30
0.0
 10
570.1425709426345
 20
540.8120314224853
 30
0.0
 10
570.1979571168977
 20
540.6688739592952
 30
0.0
 10
570.2901103870631
 20
540.5403961858447
 30
0.0
 10
570.4132544957266
 20
540.4219990243142
 30
0.0
 10
570.5728263162197
 20
540.3254738061604
 30
0.0
 10
570.7658391217436
 20
540.2586125734683
 30
0.0
 10
570.9891352367043
 20
540.214950293769
 30
0.0
 10
571.1488896114244
 20
540.21167184034
 30
0.0
 10
571.2337058236955
 20
540.2099312557555
 30
0.0
  0
LINE
  5
D3
330
1F
100
AcDbEntity
  8
0
  6
Continuous
 62
     7
370
    25
100
AcDbLine
 10
571.2337058237
 20
540.2099312558
 30
0.0
 11
571.5430153576
 21
540.2099312558
 31
0.0
  0
LINE
  5
D4
330
1F
100
AcDbEntity
  8
0
  6
Continuous
 62
     7
370
    25
100
AcDbLine
 10
571.5430153576
 20
540.2099312558
 30
0.0
 11
571.5430153576
 21
539.7357801139
 31
0.0
  0
LINE
  5
D5
330
1F
100
AcDbEntity
  8
0
  6
Continuous
 62
     7
370
    25
100
AcDbLine
 10
571.5430153576
 20
539.7357801139
 30
0.0
 11
568.2239573648
 21
539.7357801139
 31
0.0
  0
LINE
  5
D6
330
1F
100
AcDbEntity
  8
0
  6
Continuous
 62
     7
370
    25
100
AcDbLine
 10
568.2239573648
 20
539.7357801139
 30
0.0
 11
568.2239573648
 21
540.2099312558
 31
0.0
  0
SPLINE
  5
D7
330
1F
100
AcDbEntity
  8
0
  6
Continuous
 62
     7
370
    25
100
AcDbSpline
210
0.0
220
0.0
230
1.0
 70
     8
 71
     3
 72
    15
 73
    11
 74
     0
 42
0.00000001
 43
0.00000001
 40
0.0
 40
0.0
 40
0.0
 40
0.0
 40
0.1295075367804231
 40
0.2469890984807069
 40
0.3549889590734802
 40
0.4559669984370191
 40
0.5625921896880707
 40
0.6876091982654599
 40
0.8321720382618545
 40
1.0
 40
1.0
 40
1.0
 40
1.0
 10
568.2239573648333
 20
540.2099312557555
 30
0.0
 10
568.3099909390155
 20
540.2124589857286
 30
0.0
 10
568.4740690726485
 20
540.2172797225197
 30
0.0
 10
568.7064873211069
 20
540.2620250514107
 30
0.0
 10
568.9115781749695
 20
540.3350675570623
 30
0.0
 10
569.0927086028437
 20
540.4432701826763
 30
0.0
 10
569.2547618216389
 20
540.5957238624602
 30
0.0
 10
569.3996318292897
 20
540.8001995282475
 30
0.0
 10
569.5443532874904
 20
541.0525112910422
 30
0.0
 10
569.6239969392062
 20
541.2441810233678
 30
0.0
 10
569.6667844721893
 20
541.3471531349809
 30
0.0
  0
LINE
  5
D8
330
1F
100
AcDbEntity
  8
0
  6
Continuous
 62
     7
370
    25
100
AcDbLine
 10
569.6667844722
 20
541.347153135
 30
0.0
 11
572.7265410593
 21
549.100265165
 31
0.0
  0
LINE
  5
D9
330
1F
100
AcDbEntity
  8
0
  6
Continuous
 62
     7
370
    25
100
AcDbLine
 10
577.3013587168
 20
540.2099312558
 30
0.0
 11
577.5884424159
 21
540.2099312558
 31
0.0
  0
ARC
  5
DA
330
1F
100
AcDbEntity
  8
0
  6
Continuous
 62
     7
370
    25
100
AcDbCircle
 10
602.4038307873
 20
530.9817273796
 30
0.0
 40
1.0
100
AcDbArc
 50
180.0
 51
0.0
  0
LINE
  5
DB
330
1F
100
AcDbEntity
  8
0
  6
Continuous
 62
     7
370
    25
100
AcDbLine
 10
603.4038307873
 20
556.9817273796
 30
0.0
 11
603.4038307873
 21
553.9817273796
 31
0.0
  0
ARC
  5
DC
330
1F
100
AcDbEntity
  8
0
  6
Continuous
 62
     7
370
    25
100
AcDbCircle
 10
602.4038307873
 20
556.9817273796
 30
0.0
 40
1.0
100
AcDbArc
 50
0.0
 51
180.0
  0
LINE
  5
DD
330
1F
100
AcDbEntity
  8
0
  6
Continuous
 62
     7
370
    25
100
AcDbLine
 10
601.4038307873
 20
556.9817273796
 30
0.0
 11
601.4038307873
 21
553.9817273796
 31
0.0
  0
ARC
  5
DE
330
1F
100
AcDbEntity
  8
0
  6
Continuous
 62
     7
370
    25
100
AcDbCircle
 10
602.4038307873
 20
553.9817273796
 30
0.0
 40
1.0
100
AcDbArc
 50
180.0
 51
0.0
  0
ARC
  5
DF
330
1F
100
AcDbEntity
  8
0
  6
Continuous
 62
     7
370
    25
100
AcDbCircle
 10
582.4038307873
 20
530.9817273796
 30
0.0
 40
1.0
100
AcDbArc
 50
180.0
 51
0.0
  0
LINE
  5
E0
330
1F
100
AcDbEntity
  8
0
  6
Continuous
 62
     7
370
    25
100
AcDbLine
 10
583.4038307873
 20
530.9817273796
 30
0.0
 11
583.4038307873
 21
533.9817273796
 31
0.0
  0
ARC
  5
E1
330
1F
100
AcDbEntity
  8
0
  6
Continuous
 62
     7
370
    25
100
AcDbCircle
 10
582.4038307873
 20
533.9817273796
 30
0.0
 40
1.0
100
AcDbArc
 50
0.0
 51
180.0
  0
LINE
  5
E2
330
1F
100
AcDbEntity
  8
0
  6
Continuous
 62
     7
370
    25
100
AcDbLine
 10
581.4038307873
 20
530.9817273796
 30
0.0
 11
581.4038307873
 21
533.9817273796
 31
0.0
  0
ARC
  5
E3
330
1F
100
AcDbEntity
  8
0
  6
Continuous
 62
     7
370
    25
100
AcDbCircle
 10
562.4038307873
 20
530.9817273796
 30
0.0
 40
1.0
100
AcDbArc
 50
180.0
 51
0.0
  0
LINE
  5
E4
330
1F
100
AcDbEntity
  8
0
  6
Continuous
 62
     7
370
    25
100
AcDbLine
 10
563.4038307873
 20
530.9817273796
 30
0.0
 11
563.4038307873
 21
533.9817273796
 31
0.0
  0
ARC
  5
E5
330
1F
100
AcDbEntity
  8
0
  6
Continuous
 62
     7
370
    25
100
AcDbCircle
 10
562.4038307873
 20
533.9817273796
 30
0.0
 40
1.0
100
AcDbArc
 50
0.0
 51
180.0
  0
LINE
  5
E6
330
1F
100
AcDbEntity
  8
0
  6
Continuous
 62
     7
370
    25
100
AcDbLine
 10
561.4038307873
 20
530.9817273796
 30
0.0
 11
561.4038307873
 21
533.9817273796
 31
0.0
  0
ARC
  5
E7
330
1F
100
AcDbEntity
  8
0
  6
Continuous
 62
     7
370
    25
100
AcDbCircle
 10
592.4038307873
 20
556.9817273796
 30
0.0
 40
1.0
100
AcDbArc
 50
0.0
 51
180.0
  0
LINE
  5
E8
330
1F
100
AcDbEntity
  8
0
  6
Continuous
 62
     7
370
    25
100
AcDbLine
 10
591.4038307873
 20
556.9817273796
 30
0.0
 11
591.4038307873
 21
553.9817273796
 31
0.0
  0
ARC
  5
E9
330
1F
100
AcDbEntity
  8
0
  6
Continuous
 62
     7
370
    25
100
AcDbCircle
 10
592.4038307873
 20
553.9817273796
 30
0.0
 40
1.0
100
AcDbArc
 50
180.0
 51
0.0
  0
LINE
  5
EA
330
1F
100
AcDbEntity
  8
0
  6
Continuous
 62
     7
370
    25
100
AcDbLine
 10
593.4038307873
 20
556.9817273796
 30
0.0
 11
593.4038307873
 21
553.9817273796
 31
0.0
  0
ARC
  5
EB
330
1F
100
AcDbEntity
  8
0
  6
Continuous
 62
     7
370
    25
100
AcDbCircle
 10
572.4038307873
 20
556.9817273796
 30
0.0
 40
1.0
100
AcDbArc
 50
0.0
 51
180.0
  0
LINE
  5
EC
330
1F
100
AcDbEntity
  8
0
  6
Continuous
 62
     7
370
    25
100
AcDbLine
 10
571.4038307873
 20
556.9817273796
 30
0.0
 11
571.4038307873
 21
553.9817273796
 31
0.0
  0
ARC
  5
ED
330
1F
100
AcDbEntity
  8
0
  6
Continuous
 62
     7
370
    25
100
AcDbCircle
 10
572.4038307873
 20
553.9817273796
 30
0.0
 40
1.0
100
AcDbArc
 50
180.0
 51
0.0
  0
LINE
  5
EE
330
1F
100
AcDbEntity
  8
0
  6
Continuous
 62
     7
370
    25
100
AcDbLine
 10
573.4038307873
 20
556.9817273796
 30
0.0
 11
573.4038307873
 21
553.9817273796
 31
0.0
  0
LINE
  5
EF
330
1F
100
AcDbEntity
  8
0
  6
Continuous
 62
     7
370
    25
100
AcDbLine
 10
557.4038307873
 20
528.9817273796
 30
0.0
 11
557.4038307873
 21
558.9817273796
 31
0.0
  0
LINE
  5
F0
330
1F
100
AcDbEntity
  8
0
  6
Continuous
 62
     7
370
    25
100
AcDbLine
 10
557.4038307873
 20
558.9817273796
 30
0.0
 11
607.4038307873
 21
558.9817273796
 31
0.0
  0
LINE
  5
F1
330
1F
100
AcDbEntity
  8
0
  6
Continuous
 62
     7
370
    25
100
AcDbLine
 10
607.4038307873
 20
528.9817273796
 30
0.0
 11
607.4038307873
 21
558.9817273796
 31
0.0
  0
LINE
  5
F2
330
1F
100
AcDbEntity
  8
0
  6
Continuous
 62
     7
370
    25
100
AcDbLine
 10
557.4038307873
 20
528.9817273796
 30
0.0
 11
607.4038307873
 21
528.9817273796
 31
0.0
  0
LINE
  5
F3
330
1F
100
AcDbEntity
  8
0
  6
Continuous
 62
     7
370
    25
100
AcDbLine
 10
563.4038307873
 20
556.9817273796
 30
0.0
 11
563.4038307873
 21
553.9817273796
 31
0.0
  0
ARC
  5
F4
330
1F
100
AcDbEntity
  8
0
  6
Continuous
 62
     7
370
    25
100
AcDbCircle
 10
562.4038307873
 20
556.9817273796
 30
0.0
 40
1.0
100
AcDbArc
 50
0.0
 51
180.0
  0
LINE
  5
F5
330
1F
100
AcDbEntity
  8
0
  6
Continuous
 62
     7
370
    25
100
AcDbLine
 10
561.4038307873
 20
556.9817273796
 30
0.0
 11
561.4038307873
 21
553.9817273796
 31
0.0
  0
ARC
  5
F6
330
1F
100
AcDbEntity
  8
0
  6
Continuous
 62
     7
370
    25
100
AcDbCircle
 10
562.4038307873
 20
553.9817273796
 30
0.0
 40
1.0
100
AcDbArc
 50
180.0
 51
0.0
  0
LINE
  5
F7
330
1F
100
AcDbEntity
  8
0
  6
Continuous
 62
     7
370
    25
100
AcDbLine
 10
583.4038307873
 20
556.9817273796
 30
0.0
 11
583.4038307873
 21
553.9817273796
 31
0.0
  0
ARC
  5
F8
330
1F
100
AcDbEntity
  8
0
  6
Continuous
 62
     7
370
    25
100
AcDbCircle
 10
582.4038307873
 20
556.9817273796
 30
0.0
 40
1.0
100
AcDbArc
 50
0.0
 51
180.0
  0
LINE
  5
F9
330
1F
100
AcDbEntity
  8
0
  6
Continuous
 62
     7
370
    25
100
AcDbLine
 10
581.4038307873
 20
556.9817273796
 30
0.0
 11
581.4038307873
 21
553.9817273796
 31
0.0
  0
ARC
  5
FA
330
1F
100
AcDbEntity
  8
0
  6
Continuous
 62
     7
370
    25
100
AcDbCircle
 10
582.4038307873
 20
553.9817273796
 30
0.0
 40
1.0
100
AcDbArc
 50
180.0
 51
0.0
  0
LINE
  5
FB
330
1F
100
AcDbEntity
  8
0
  6
Continuous
 62
     7
370
    25
100
AcDbLine
 10
571.4038307873
 20
530.9817273796
 30
0.0
 11
571.4038307873
 21
533.9817273796
 31
0.0
  0
ARC
  5
FC
330
1F
100
AcDbEntity
  8
0
  6
Continuous
 62
     7
370
    25
100
AcDbCircle
 10
572.4038307873
 20
530.9817273796
 30
0.0
 40
1.0
100
AcDbArc
 50
180.0
 51
0.0
  0
LINE
  5
FD
330
1F
100
AcDbEntity
  8
0
  6
Continuous
 62
     7
370
    25
100
AcDbLine
 10
573.4038307873
 20
530.9817273796
 30
0.0
 11
573.4038307873
 21
533.9817273796
 31
0.0
  0
ARC
  5
FE
330
1F
100
AcDbEntity
  8
0
  6
Continuous
 62
     7
370
    25
100
AcDbCircle
 10
572.4038307873
 20
533.9817273796
 30
0.0
 40
1.0
100
AcDbArc
 50
0.0
 51
180.0
  0
LINE
  5
FF
330
1F
100
AcDbEntity
  8
0
  6
Continuous
 62
     7
370
    25
100
AcDbLine
 10
591.4038307873
 20
530.9817273796
 30
0.0
 11
591.4038307873
 21
533.9817273796
 31
0.0
  0
ARC
  5
100
330
1F
100
AcDbEntity
  8
0
  6
Continuous
 62
     7
370
    25
100
AcDbCircle
 10
592.4038307873
 20
530.9817273796
 30
0.0
 40
1.0
100
AcDbArc
 50
180.0
 51
0.0
  0
LINE
  5
101
330
1F
100
AcDbEntity
  8
0
  6
Continuous
 62
     7
370
    25
100
AcDbLine
 10
593.4038307873
 20
530.9817273796
 30
0.0
 11
593.4038307873
 21
533.9817273796
 31
0.0
  0
ARC
  5
102
330
1F
100
AcDbEntity
  8
0
  6
Continuous
 62
     7
370
    25
100
AcDbCircle
 10
592.4038307873
 20
533.9817273796
 30
0.0
 40
1.0
100
AcDbArc
 50
0.0
 51
180.0
  0
LINE
  5
103
330
1F
100
AcDbEntity
  8
0
  6
Continuous
 62
     7
370
    25
100
AcDbLine
 10
601.4038307873
 20
530.9817273796
 30
0.0
 11
601.4038307873
 21
533.9817273796
 31
0.0
  0
ARC
  5
104
330
1F
100
AcDbEntity
  8
0
  6
Continuous
 62
     7
370
    25
100
AcDbCircle
 10
602.4038307873
 20
533.9817273796
 30
0.0
 40
1.0
100
AcDbArc
 50
0.0
 51
180.0
  0
LINE
  5
105
330
1F
100
AcDbEntity
  8
0
  6
Continuous
 62
     7
370
    25
100
AcDbLine
 10
603.4038307873
 20
530.9817273796
 30
0.0
 11
603.4038307873
 21
533.9817273796
 31
0.0
  0
ENDSEC
  0
SECTION
  2
OBJECTS
  0
DICTIONARY
  5
C
330
0
100
AcDbDictionary
281
     1
  3
ACAD_GROUP
350
D
  3
ACAD_LAYOUT
350
1A
  3
ACAD_MLINESTYLE
350
17
  3
ACAD_PLOTSETTINGS
350
19
  3
ACAD_PLOTSTYLENAME
350
E
  3
ACAD_SCALELIST
350
47
  3
DWGPROPS
350
106
  0
DICTIONARY
  5
D
102
{ACAD_REACTORS
330
C
102
}
330
C
100
AcDbDictionary
281
     1
  0
DICTIONARY
  5
1A
102
{ACAD_REACTORS
330
C
102
}
330
C
100
AcDbDictionary
281
     1
  3
Layout1
350
1E
  3
Layout2
350
26
  3
Model
350
22
  0
DICTIONARY
  5
17
102
{ACAD_REACTORS
330
C
102
}
330
C
100
AcDbDictionary
281
     1
  3
Standard
350
18
  0
DICTIONARY
  5
19
102
{ACAD_REACTORS
330
C
102
}
330
C
100
AcDbDictionary
281
     1
  0
ACDBDICTIONARYWDFLT
  5
E
102
{ACAD_REACTORS
330
C
102
}
330
C
100
AcDbDictionary
281
     1
  3
Normal
350
F
100
AcDbDictionaryWithDefault
340
F
  0
DICTIONARY
  5
47
102
{ACAD_REACTORS
330
C
102
}
330
C
100
AcDbDictionary
281
     1
  3
A0
350
48
  3
A1
350
49
  3
A2
350
4A
  3
A3
350
4B
  3
A4
350
4C
  3
A5
350
4D
  3
A6
350
4E
  3
A7
350
4F
  3
A8
350
50
  3
A9
350
51
  3
B0
350
52
  3
B1
350
53
  3
B2
350
54
  3
B3
350
55
  3
B4
350
56
  3
B5
350
57
  3
B6
350
58
  0
XRECORD
  5
106
102
{ACAD_REACTORS
330
C
102
}
330
C
100
AcDbXrecord
280
     1
  1
DWGPROPS COOKIE
  2

  3

  4

  6

  7

  8
Acer
  9

300
=
301
=
302
=
303
=
304
=
305
=
306
=
307
=
308
=
309
=
 40
0.0
 41
2461172.262858438
 42
2461172.262858947
  1

 90
        0
  0
LAYOUT
  5
1E
102
{ACAD_REACTORS
330
1A
102
}
330
1A
100
AcDbPlotSettings
  1

  2
none_device
  4

  6

 40
0.0
 41
0.0
 42
0.0
 43
0.0
 44
0.0
 45
0.0
 46
0.0
 47
0.0
 48
0.0
 49
0.0
140
0.0
141
0.0
142
1.0
143
1.0
 70
   688
 72
     1
 73
     0
 74
     5
  7

 75
    16
147
1.0
148
0.0
149
0.0
100
AcDbLayout
  1
Layout1
 70
     1
 71
     1
 10
0.0
 20
0.0
 11
420.0
 21
297.0
 12
0.0
 22
0.0
 32
0.0
 14
1.0000000000E+20
 24
1.0000000000E+20
 34
1.0000000000E+20
 15
-1.0000000000E+20
 25
-1.0000000000E+20
 35
-1.0000000000E+20
146
0.0
 13
0.0
 23
0.0
 33
0.0
 16
1.0
 26
0.0
 36
0.0
 17
0.0
 27
1.0
 37
0.0
 76
     0
330
1B
  0
LAYOUT
  5
26
102
{ACAD_REACTORS
330
1A
102
}
330
1A
100
AcDbPlotSettings
  1

  2
none_device
  4

  6

 40
0.0
 41
0.0
 42
0.0
 43
0.0
 44
0.0
 45
0.0
 46
0.0
 47
0.0
 48
0.0
 49
0.0
140
0.0
141
0.0
142
1.0
143
1.0
 70
   688
 72
     1
 73
     0
 74
     5
  7

 75
    16
147
1.0
148
0.0
149
0.0
100
AcDbLayout
  1
Layout2
 70
     1
 71
     2
 10
0.0
 20
0.0
 11
0.0
 21
0.0
 12
0.0
 22
0.0
 32
0.0
 14
0.0
 24
0.0
 34
0.0
 15
0.0
 25
0.0
 35
0.0
146
0.0
 13
0.0
 23
0.0
 33
0.0
 16
1.0
 26
0.0
 36
0.0
 17
0.0
 27
1.0
 37
0.0
 76
     0
330
23
  0
LAYOUT
  5
22
102
{ACAD_REACTORS
330
1A
102
}
330
1A
100
AcDbPlotSettings
  1

  2
none_device
  4
Letter_(8.50_x_11.00_Inches)
  6

 40
6.35
 41
6.35
 42
6.35000508
 43
6.35000508
 44
215.9
 45
279.4
 46
0.0
 47
0.0
 48
0.0
 49
0.0
140
0.0
141
0.0
142
1.0
143
1.0
 70
  1712
 72
     1
 73
     0
 74
     0
  7

 75
     0
147
1.0
148
0.0
149
0.0
100
AcDbLayout
  1
Model
 70
     1
 71
     0
 10
0.0
 20
0.0
 11
1189.0
 21
841.0
 12
0.0
 22
0.0
 32
0.0
 14
0.0
 24
0.0
 34
0.0
 15
1189.0
 25
841.0
 35
0.0
146
0.0
 13
0.0
 23
0.0
 33
0.0
 16
1.0
 26
0.0
 36
0.0
 17
0.0
 27
1.0
 37
0.0
 76
     0
330
1F
331
29
  0
MLINESTYLE
  5
18
102
{ACAD_REACTORS
330
17
102
}
330
17
100
AcDbMlineStyle
  2
Standard
 70
     0
  3

 62
   256
 51
90.0
 52
90.0
 71
     2
 49
0.5
 62
   256
  6
BYLAYER
 49
-0.5
 62
   256
  6
BYLAYER
  0
ACDBPLACEHOLDER
  5
F
102
{ACAD_REACTORS
330
E
102
}
330
E
  0
SCALE
  5
48
102
{ACAD_REACTORS
330
47
102
}
330
47
100
AcDbScale
 70
     0
300
1:1
140
1.0
141
1.0
290
     1
  0
SCALE
  5
49
102
{ACAD_REACTORS
330
47
102
}
330
47
100
AcDbScale
 70
     0
300
1:2
140
1.0
141
2.0
290
     0
  0
SCALE
  5
4A
102
{ACAD_REACTORS
330
47
102
}
330
47
100
AcDbScale
 70
     0
300
1:4
140
1.0
141
4.0
290
     0
  0
SCALE
  5
4B
102
{ACAD_REACTORS
330
47
102
}
330
47
100
AcDbScale
 70
     0
300
1:5
140
1.0
141
5.0
290
     0
  0
SCALE
  5
4C
102
{ACAD_REACTORS
330
47
102
}
330
47
100
AcDbScale
 70
     0
300
1:8
140
1.0
141
8.0
290
     0
  0
SCALE
  5
4D
102
{ACAD_REACTORS
330
47
102
}
330
47
100
AcDbScale
 70
     0
300
1:10
140
1.0
141
10.0
290
     0
  0
SCALE
  5
4E
102
{ACAD_REACTORS
330
47
102
}
330
47
100
AcDbScale
 70
     0
300
1:16
140
1.0
141
16.0
290
     0
  0
SCALE
  5
4F
102
{ACAD_REACTORS
330
47
102
}
330
47
100
AcDbScale
 70
     0
300
1:20
140
1.0
141
20.0
290
     0
  0
SCALE
  5
50
102
{ACAD_REACTORS
330
47
102
}
330
47
100
AcDbScale
 70
     0
300
1:30
140
1.0
141
30.0
290
     0
  0
SCALE
  5
51
102
{ACAD_REACTORS
330
47
102
}
330
47
100
AcDbScale
 70
     0
300
1:40
140
1.0
141
40.0
290
     0
  0
SCALE
  5
52
102
{ACAD_REACTORS
330
47
102
}
330
47
100
AcDbScale
 70
     0
300
1:50
140
1.0
141
50.0
290
     0
  0
SCALE
  5
53
102
{ACAD_REACTORS
330
47
102
}
330
47
100
AcDbScale
 70
     0
300
1:100
140
1.0
141
100.0
290
     0
  0
SCALE
  5
54
102
{ACAD_REACTORS
330
47
102
}
330
47
100
AcDbScale
 70
     0
300
2:1
140
2.0
141
1.0
290
     0
  0
SCALE
  5
55
102
{ACAD_REACTORS
330
47
102
}
330
47
100
AcDbScale
 70
     0
300
4:1
140
4.0
141
1.0
290
     0
  0
SCALE
  5
56
102
{ACAD_REACTORS
330
47
102
}
330
47
100
AcDbScale
 70
     0
300
8:1
140
8.0
141
1.0
290
     0
  0
SCALE
  5
57
102
{ACAD_REACTORS
330
47
102
}
330
47
100
AcDbScale
 70
     0
300
10:1
140
10.0
141
1.0
290
     0
  0
SCALE
  5
58
102
{ACAD_REACTORS
330
47
102
}
330
47
100
AcDbScale
 70
     0
300
100:1
140
100.0
141
1.0
290
     0
  0
ENDSEC
  0
EOF
